<svg width="131px" height="131px" viewBox="0 0 131 131" version="1.1"
    xmlns="http://www.w3.org/2000/svg"
    xmlns:xlink="http://www.w3.org/1999/xlink">
    <g id="About-Us" stroke="none" stroke-width="1" fill="none" fill-rule="evenodd">
        <g id="About-us-page-copy" transform="translate(-805.000000, -3220.000000)" fill-rule="nonzero">
            <g id="Group-5" transform="translate(500.000000, 3123.000000)">
                <g id="Group-4" transform="translate(115.000000, 72.106977)">
                    <g id="About/team/icon" transform="translate(190.000000, 24.893023)">
                        <path d="M65.1341995,123.849167 C64.0677818,123.849167 63.1892612,122.980104 63.1582781,121.881747 C63.1272949,120.763942 63.986826,119.832437 65.0782301,119.800704 C66.1716334,119.749523 67.0901322,120.616539 67.138106,121.734344 C67.1870792,122.851126 66.3395418,123.796962 65.2481375,123.846096 L65.1911686,123.848143 C65.1721789,123.849167 65.1531892,123.849167 65.1341995,123.849167 L65.1341995,123.849167 Z M57.1845386,123.544125 C57.106581,123.544125 57.0296231,123.54003 56.9506664,123.530817 L56.9456689,123.529794 C55.8592618,123.418218 55.0726913,122.427343 55.1816318,121.313632 C55.2905723,120.200944 56.2660398,119.391252 57.3514476,119.501804 L57.4124142,119.507946 C58.4968223,119.638971 59.272399,120.6452 59.1444688,121.75584 C59.0265333,122.786637 58.172999,123.544125 57.1845386,123.544125 L57.1845386,123.544125 Z M73.0658704,122.919709 C72.1403757,122.919709 71.3138267,122.251278 71.1289277,121.285994 C70.9170434,120.188661 71.6146627,119.124084 72.686078,118.908098 L72.7230577,118.900932 C73.7954723,118.691088 74.8309072,119.411725 75.0357953,120.510081 C75.2406834,121.607414 74.5380671,122.66892 73.4656522,122.878764 L73.4506606,122.881835 C73.3207314,122.907426 73.1928012,122.919709 73.0658704,122.919709 L73.0658704,122.919709 Z M49.3408197,122.001512 C49.1689135,122.001512 48.9940089,121.977968 48.8191046,121.929858 L48.8081105,121.926787 C47.753686,121.639147 47.1240298,120.530554 47.403877,119.450622 C47.6837243,118.369668 48.7651339,117.725804 49.8195585,118.011397 L49.860536,118.022656 C50.9139612,118.317462 51.5346224,119.43015 51.2467795,120.509057 C51.0069104,121.409853 50.2103452,122.001512 49.3408197,122.001512 Z M80.7696659,120.756776 C79.961107,120.756776 79.2035207,120.247008 78.9106803,119.424008 C78.5378838,118.372739 79.0675948,117.210917 80.093035,116.829102 L80.126017,116.817842 C81.1524568,116.440122 82.2848387,116.985718 82.654637,118.038011 C83.0244353,119.090304 82.489727,120.250078 81.4622878,120.628822 L81.4452969,120.634964 C81.2214191,120.717878 80.9935437,120.756776 80.7696659,120.756776 Z M41.8109294,119.239754 C41.5410768,119.239754 41.2672262,119.182431 41.0043698,119.060619 L40.9773845,119.048335 C39.9829272,118.586677 39.5421678,117.386981 39.9929219,116.368468 C40.4436757,115.349955 41.6140369,114.898534 42.6094936,115.360191 C43.6049503,115.820825 44.0577031,117.024616 43.6089481,118.044153 C43.2781289,118.794475 42.5625192,119.239754 41.8109294,119.239754 Z M88.0516912,117.410525 C87.3440775,117.410525 86.66145,117.021545 86.3056442,116.338783 C85.7909253,115.352002 86.1557261,114.124668 87.1192003,113.598522 C88.0756782,113.060091 89.278022,113.417339 89.8047346,114.396954 C90.3304475,115.376569 89.9826373,116.607998 89.0251598,117.146428 L88.9801844,117.172019 C88.6833465,117.333753 88.3655201,117.410525 88.0516912,117.410525 Z M106.012155,99.3106739 L106.02546,99.3198868 L105.811562,99.1673658 L106.012155,99.3106739 Z M14.7487001,90.4849239 C13.9681262,90.4849239 13.2285299,90.0079115 12.9157007,89.2217626 L12.9107035,89.2074319 C12.4939307,88.173564 12.9746685,86.9892225 13.9831181,86.5633918 C14.992567,86.1365376 16.148936,86.6289042 16.5647091,87.6617485 L16.5787013,87.6975754 C16.9904766,88.7334904 16.5027428,89.9147612 15.4912948,90.3354736 C15.2484273,90.4368131 14.9955654,90.4849239 14.7487001,90.4849239 L14.7487001,90.4849239 Z M112.87914,86.599219 C112.672253,86.599219 112.461368,86.5654392 112.253482,86.4948084 C111.225043,86.1437031 110.665349,85.0095194 110.996168,83.9541554 C111.318992,82.8906022 112.420391,82.2897308 113.460823,82.6131981 C114.505253,82.938713 115.094931,84.0657311 114.779103,85.1344023 L114.754117,85.2142457 C114.478268,86.0628361 113.706689,86.599219 112.87914,86.599219 Z M12.3310196,82.6899705 C11.436508,82.6899705 10.6259504,82.0645316 10.4090688,81.1350745 L10.4030719,81.10846 C10.15021,80.0203397 10.8048528,78.9281249 11.8672727,78.6681227 C12.9296929,78.4081204 13.9961109,79.0796226 14.2489728,80.1677426 L14.2549697,80.1943572 C14.508831,81.2814536 13.8531889,82.3736684 12.7917683,82.633671 C12.6368528,82.6715453 12.4829367,82.6899705 12.3310196,82.6899705 Z M114.697148,78.6353665 C114.58321,78.6353665 114.468273,78.62513 114.351337,78.6036338 C113.283919,78.4111911 112.56831,77.373229 112.744214,76.2810142 C112.910123,75.1806103 113.912576,74.4210759 114.987989,74.5828096 C116.0674,74.7465906 116.813993,75.7712458 116.65508,76.8777914 L116.642086,76.961729 C116.473179,77.9433916 115.638634,78.6353665 114.697148,78.6353665 L114.697148,78.6353665 Z M11.1106857,74.6032822 C10.0962396,74.6032822 9.2337103,73.8109916 9.14375927,72.7576749 L9.13776267,72.673737 C9.07379759,71.5569551 9.90534373,70.5998596 10.9957484,70.5333236 C12.0761589,70.4657641 13.0086499,71.3082128 13.083609,72.4137348 C13.1705614,73.523351 12.3670002,74.500919 11.2825919,74.5961167 C11.2246237,74.6012351 11.1676548,74.6032822 11.1106857,74.6032822 L11.1106857,74.6032822 Z M115.302818,70.4800948 C114.210414,70.4800948 113.325897,69.574181 113.325897,68.4553519 L113.325897,68.4287374 C113.325897,68.4144067 113.325897,68.4000757 113.325897,68.3867686 C113.325897,68.3693669 113.325897,68.3509414 113.325897,68.3335397 L113.325897,68.3069252 C113.325897,67.1880961 114.210414,66.2811588 115.302818,66.2811588 C116.394222,66.2811588 117.279739,67.1880961 117.279739,68.3069252 L117.279739,68.3335397 C117.279739,68.3478705 117.279739,68.3622014 117.278739,68.3755086 C117.279739,68.3929105 117.279739,68.4103122 117.279739,68.4287374 L117.279739,68.4553519 C117.279739,69.574181 116.395221,70.4800948 115.302818,70.4800948 Z M11.1056885,66.4285617 C11.0487197,66.4285617 10.9907512,66.4254908 10.9327829,66.4203727 C9.84637585,66.3241512 9.04181504,65.3455595 9.13376485,64.2338959 C9.2097234,63.128374 10.1332194,62.2859253 11.2216252,62.3555322 C12.3120302,62.4210446 13.1435763,63.3791636 13.0796112,64.494922 L13.072615,64.5788597 C12.9836636,65.6332002 12.1201349,66.4285617 11.1056885,66.4285617 Z M114.682156,62.2050583 C113.74067,62.2050583 112.907125,61.5141073 112.738217,60.5314211 L112.724225,60.4474832 C112.566311,59.3409377 113.312904,58.3121882 114.393314,58.1494307 C115.467728,57.9866732 116.474178,58.7492786 116.63509,59.8527534 C116.809995,60.9439444 116.095385,61.9798594 115.027968,62.1733257 C114.912031,62.1948221 114.796094,62.2050583 114.682156,62.2050583 Z M115.013975,60.1025195 L114.680157,60.1526774 L115.013975,60.1025195 Z M12.3050339,58.3439206 C12.1531168,58.3439206 11.9982013,58.3254953 11.8442854,58.287621 C10.7838643,58.0286421 10.1282221,56.9384747 10.379085,55.8524018 C10.6129575,54.7724706 11.6533896,54.0825428 12.7138107,54.3097892 C13.7822278,54.5390826 14.4678534,55.6118483 14.2439756,56.7061103 L14.2259853,56.7890246 C14.0101031,57.7184817 13.1995457,58.3439206 12.3050339,58.3439206 Z M112.868146,54.2534894 C112.0366,54.2534894 111.260024,53.7089174 110.983175,52.8582799 L110.961187,52.7876492 C110.639363,51.7189779 111.225043,50.5858179 112.269473,50.2572323 C113.313903,49.9276231 114.4183,50.527471 114.740125,51.597166 L114.741124,51.6002367 C115.085936,52.6617427 114.523243,53.7969499 113.486809,54.1501026 C113.28292,54.2207332 113.074034,54.2534894 112.868146,54.2534894 L112.868146,54.2534894 Z M14.7017259,50.5366836 C14.4538612,50.5366836 14.2019984,50.4885731 13.9581318,50.3872335 C12.9466836,49.9665209 12.4599494,48.7852504 12.8707253,47.7493354 L12.8807197,47.7247682 C13.2914956,46.6888532 14.4438665,46.1893211 15.4563139,46.6100337 C16.4677618,47.030746 16.9544962,48.2120168 16.5437204,49.2479318 L16.5337259,49.2735225 C16.2218961,50.0596715 15.4822998,50.5366836 14.7017259,50.5366836 Z M109.869783,46.6694042 C109.150176,46.6694042 108.454555,46.2650697 108.102747,45.5669532 L108.072764,45.5075824 C107.591027,44.5034001 107.994806,43.2903969 108.975271,42.7970064 C109.954737,42.3036162 111.13909,42.7171633 111.621827,43.7203221 L111.622826,43.7244166 C112.124552,44.717339 111.739762,45.931366 110.769292,46.4442052 C110.481449,46.5967263 110.173617,46.6694042 109.869783,46.6694042 Z M18.2417936,43.2013409 C17.890985,43.2013409 17.5351792,43.1061432 17.2143544,42.9044876 C16.2838622,42.3240888 15.9890233,41.0824239 16.551716,40.129423 C17.0964186,39.1764221 18.2907668,38.8447655 19.2322531,39.3913846 C20.1817347,39.943122 20.5155527,41.1786452 19.977846,42.1510949 C19.9628544,42.1777094 19.9468631,42.204324 19.9308718,42.2309383 C19.5590745,42.8563771 18.9084298,43.2013409 18.2417936,43.2013409 Z M105.765023,39.6452452 C105.132369,39.6452452 104.509708,39.3340612 104.127917,38.7577569 C103.493263,37.8477486 103.704148,36.5917528 104.593663,35.9417468 C105.481178,35.2917407 106.722501,35.5118216 107.357154,36.4218298 L107.399131,36.4832477 C108.011797,37.4086105 107.776925,38.6676773 106.873418,39.2961869 C106.533604,39.5326458 106.147814,39.6452452 105.765023,39.6452452 Z M22.8352865,36.5078149 C22.3895296,36.5078149 21.9427737,36.3542703 21.5729754,36.041039 C20.7334336,35.3265443 20.6174969,34.0500759 21.3151163,33.1892019 L21.3321069,33.1687293 C22.029726,32.3078551 23.2750465,32.1901376 24.1155876,32.9036087 C24.9561288,33.6181033 25.0720658,34.8945718 24.3744464,35.7554457 L24.3574557,35.7759186 C23.966669,36.2590726 23.4029766,36.5078149 22.8352865,36.5078149 Z M100.671803,33.3458175 C100.152087,33.3458175 99.6333699,33.1380202 99.2455816,32.7234496 C98.480999,31.925017 98.4919928,30.6403595 99.2725669,29.8572816 C100.051142,29.0752271 101.301459,29.0864872 102.065043,29.8849197 L102.098025,29.9186994 C102.854612,30.725321 102.828626,32.0079311 102.041056,32.7817965 C101.657265,33.1595164 101.164534,33.3458175 100.671803,33.3458175 Z M28.3682666,30.6076033 C27.8205655,30.6076033 27.2768623,30.3772863 26.8860755,29.9248411 C26.1624704,29.0875107 26.2394286,27.8079716 27.0569823,27.0668621 L27.0649779,27.0596969 C27.8775343,26.3155168 29.127852,26.3830766 29.8564542,27.2152889 C30.5840571,28.0464776 30.520092,29.3229461 29.7095346,30.0701969 L29.6775521,30.0998821 C29.3007575,30.4407513 28.8330128,30.6076033 28.3682666,30.6076033 Z M94.7020613,27.9103344 C94.2962829,27.9103344 93.8885055,27.7834044 93.5356981,27.5193074 L93.4687346,27.4671021 C92.6072047,26.7802453 92.4512901,25.5088952 93.1219238,24.6255012 C93.7915585,23.7441547 95.0298824,23.5844681 95.8914123,24.2672304 C96.754941,24.9315671 96.9388406,26.1865394 96.2991897,27.0811931 C95.9114014,27.6237176 95.3107293,27.9103344 94.7020613,27.9103344 Z M94.8854085,25.609211 L94.682768,25.8692135 L94.8854085,25.609211 Z M34.7088059,25.6368491 C34.0561622,25.6368491 33.4175107,25.3062161 33.0407164,24.7012501 C32.4540365,23.7595092 32.7228897,22.5106788 33.6393894,21.9077597 C34.5408975,21.2976757 35.7572336,21.5423234 36.3649019,22.460521 C36.9785671,23.3858838 36.7426959,24.6449503 35.839189,25.2724363 L35.7702267,25.3195235 C35.441406,25.534486 35.0736067,25.6368491 34.7088059,25.6368491 Z M87.9907246,23.4657269 C87.6788948,23.4657269 87.3620675,23.389978 87.0672286,23.229268 L87.0202542,23.2026537 C86.0637763,22.6642234 85.7149665,21.4327948 86.2406797,20.4531795 C86.7663929,19.4735643 87.9687365,19.116317 88.9252146,19.654747 L88.9312112,19.657818 C89.8856903,20.1911299 90.2464933,21.418464 89.7307748,22.3991028 C89.3729702,23.0787941 88.6933412,23.4657269 87.9907246,23.4657269 Z M41.7139824,21.7142935 C40.9603938,21.7142935 40.2397872,21.2710611 39.9099671,20.5227865 C39.4602124,19.5042734 39.9019714,18.3056009 40.8964287,17.8449667 L40.9424035,17.824494 C41.941858,17.37512 43.1072221,17.8429195 43.5459824,18.8675745 C43.9827442,19.8922295 43.526993,21.0857839 42.5265391,21.5341343 C42.2626831,21.6559465 41.985834,21.7142935 41.7139824,21.7142935 Z" id="Shape" fill="#404987"></path>
                        <path d="M78.4259449,107.735161 L48.6611907,77.2503932 C46.795209,75.3402968 46.7932103,72.2489299 48.6561934,70.3419047 C49.391792,69.588512 50.3112901,69.1319723 51.2667686,68.9774038 C52.7249725,68.7368507 54.2731277,69.1923666 55.4015118,70.3480464 L47.7366953,62.497817 C46.8052037,61.5437925 46.337459,60.2929148 46.337459,59.045108 C46.337459,58.7851058 46.3574481,58.5240797 46.3984257,58.2640774 C46.5513421,57.2834384 46.9950999,56.3437449 47.7316981,55.5893283 C48.4603004,54.8431011 49.3638072,54.3906561 50.3072923,54.2299458 C51.5915912,54.0108888 52.9448527,54.3312853 54.023264,55.1921596 L51.1068559,52.2052029 C50.1743646,51.2501549 49.7066202,49.9962062 49.7066202,48.7473761 C49.7046211,48.4822555 49.7276087,48.2150877 49.7705853,47.9540617 C49.9235017,46.9795645 50.3662599,46.0449891 51.0988602,45.2946671 C51.8354581,44.5402508 52.7539569,44.083711 53.7144326,43.9291429 C55.1716371,43.6885894 56.7207917,44.1451292 57.8481764,45.2997854 L61.1883534,48.7207615 C60.0629675,47.5681527 59.6152119,45.9794767 59.8500838,44.4870219 C60.0010012,43.5074067 60.4447593,42.567713 61.183356,41.8122731 C63.043341,39.9072948 66.0646917,39.9093422 67.9286746,41.8184147 L87.2721167,61.6297776 L87.3260874,61.5509578 C88.3065522,60.5467754 89.4619216,59.8333043 90.6942489,59.4074737 C93.735589,58.3572277 97.2366779,59.0747935 99.6633537,61.5611942 L108.682431,70.7984442 C110.416484,72.573421 111.388954,74.978955 111.392952,77.4868519 L111.397949,83.266275 C111.399948,85.9666149 112.449375,88.5574258 114.317355,90.4705932 L116.328258,92.5301394 L93.3238138,116.091064 L90.7532168,113.458284 C89.0441495,111.707874 86.7703905,110.653534 84.3607059,110.4918 C82.1219278,110.341326 80.0140781,109.361711 78.4259449,107.735161 Z" id="Path" fill="#776666"></path>
                        <path d="M91.8286299,117.621393 L117.940378,90.8779984 C118.800908,89.9966518 120.195147,89.9966518 121.055677,90.8779984 L130.354602,100.401865 C131.215133,101.283212 131.215133,102.712201 130.354602,103.592524 L104.243853,130.335919 C103.383323,131.217266 101.988085,131.217266 101.128554,130.335919 L91.8286299,120.812052 C90.969099,119.930705 90.969099,118.501716 91.8286299,117.621393 L91.8286299,117.621393 Z" id="Path" fill="#E1B1EC"></path>
                        <path d="M118.634999,102.882124 C119.407577,103.673391 120.657895,103.674415 121.428474,102.885195 C122.199053,102.095975 122.198054,100.814389 121.426475,100.024145 C120.653897,99.2328782 119.403579,99.2318544 118.633,100.021074 C117.862421,100.811318 117.86342,102.091881 118.634999,102.882124 L118.634999,102.882124 Z" id="Path" fill="#FFEFB6"></path>
                        <path d="M93.9324815,68.4502339 L87.2721167,61.6297776 L87.3260874,61.5509578 C88.3065522,60.5467754 89.4619216,59.8333043 90.6942489,59.4074737 L96.7279557,65.5871366 C97.4995345,66.37738 97.4995345,67.6599901 96.7279557,68.4502339 C95.954378,69.2425245 94.7040604,69.2404771 93.9324815,68.4502339 Z" id="Path" fill="#917D7D"></path>
                        <path d="M52.5740551,107.738232 L82.3388093,77.2534642 C84.204791,75.3423442 84.2067897,72.2520009 82.3448062,70.3449754 C81.608208,69.5905591 80.6897096,69.1340194 79.7332314,68.9794512 C78.2750275,68.7388978 76.7268723,69.1954375 75.5984882,70.3500938 L83.2633047,62.5008877 C84.1947963,61.5468635 84.662541,60.2959858 84.662541,59.0471554 C84.662541,58.7881767 84.6425519,58.5261271 84.6015743,58.2671481 C84.4486579,57.2854858 84.0049001,56.3468158 83.2683019,55.5923993 C82.5396996,54.846172 81.6361928,54.3937268 80.6927077,54.2330167 C79.4084088,54.0139597 78.0551473,54.3343563 76.976736,55.1952303 L79.8931441,52.2072501 C80.8256354,51.2532258 81.2933798,49.9992771 81.2933798,48.7504468 C81.2953789,48.4843026 81.2723913,48.2171349 81.2294147,47.9561088 C81.0774976,46.9826352 80.6337401,46.0470362 79.9011398,45.2967145 C79.1645419,44.5433217 78.2460431,44.086782 77.2855674,43.9322138 C75.8283629,43.6916604 74.2792083,44.1471763 73.1518236,45.3028561 L69.8116466,48.7238325 C70.9370325,47.5701998 71.3847881,45.9825474 71.1499162,44.4890693 C70.9989988,43.5104774 70.5552407,42.5707839 69.816644,41.8143202 C67.956659,39.9093422 64.9353083,39.9113896 63.0713254,41.8204621 L43.7278833,61.6318247 L43.6739126,61.5540287 C42.6934478,60.5498464 41.5380784,59.8363753 40.3057511,59.4105446 C37.2634116,58.3602987 33.7633221,59.0778642 31.3366463,61.5632416 L22.3175689,70.8015152 C20.5835156,72.576492 19.6110464,74.9820259 19.6070483,77.4899228 L19.6010517,83.2683222 C19.6000523,85.9696856 18.550625,88.5604968 16.6826446,90.4736639 L14.6717422,92.5332103 L37.6761862,116.094135 L40.2467832,113.461355 C41.9558505,111.710945 44.2296095,110.656605 46.6392941,110.494871 C48.8780722,110.344397 50.9859219,109.364782 52.5740551,107.738232 L52.5740551,107.738232 Z" id="Path" fill="#FFB8B8"></path>
                        <path d="M39.1713701,117.62344 L13.0596221,90.8810693 C12.1990919,89.9997225 10.8048528,89.9997225 9.94432252,90.8810693 L0.645397885,100.404936 C-0.215132628,101.286283 -0.215132628,102.714249 0.645397885,103.595595 L26.7561465,130.33899 C27.6166768,131.220337 29.0119153,131.220337 29.8724455,130.33899 L39.1713701,120.815123 C40.0319007,119.933776 40.0319007,118.504787 39.1713701,117.62344 Z" id="Path" fill="#558DC8"></path>
                        <path d="M30.2592345,121.210245 C31.0318127,120.418978 31.0328121,119.138415 30.2622329,118.349195 C29.4916534,117.558952 28.2403364,117.559975 27.4687575,118.351242 C26.6961793,119.141486 26.6951799,120.423072 27.4657591,121.212292 C28.237338,122.001512 29.4876556,122.000488 30.2592345,121.210245 L30.2592345,121.210245 Z" id="Path" fill="#FFFFFF"></path>
                        <path d="M37.0685179,68.4533046 L43.7278833,61.6318247 L43.6739126,61.5540287 C42.6934478,60.5498464 41.5380784,59.8363753 40.3057511,59.4105446 L34.2720443,65.5891839 C33.5004655,66.3794274 33.5004655,67.6630611 34.2720443,68.4533046 C35.045622,69.2455954 36.2959396,69.243548 37.0685179,68.4533046 Z" id="Path" fill="#D99C9C"></path>
                        <path d="M84.5366098,34.6785857 L84.5366098,77.7908706 C84.5366098,80.4932576 82.4047732,82.6797343 79.7712108,82.6797343 C78.7297791,82.6797343 77.7653056,82.3368177 76.9817332,81.7533477 C75.7853863,80.8679065 75.0048124,79.4235628 75.0048124,77.7908706 L75.0048124,88.8921534 C75.0048124,90.2412997 74.4721029,91.4645391 73.6105733,92.3469095 C73.4316709,92.5311632 73.2357778,92.7010859 73.0278913,92.8546307 C72.2423199,93.4381005 71.2808448,93.7810171 70.2394133,93.7810171 C69.2089757,93.7810171 68.2564956,93.4462896 67.4789199,92.8771505 C66.4194981,92.1022615 65.6838996,90.8954 65.5159913,89.5042851 L65.5159913,93.7298357 C65.5159913,95.0800053 64.9802837,96.3052921 64.1187538,97.1876625 C63.9368532,97.3770342 63.7359629,97.5500279 63.5260773,97.7035727 C62.7455034,98.2819244 61.7860271,98.6217701 60.7495928,98.6217701 C59.7091608,98.6217701 58.7436876,98.2788535 57.9581165,97.6933366 C56.7617693,96.8078952 55.9811954,95.3635512 55.9811954,93.7298357 L55.9811954,88.8921534 C55.9811954,90.5227982 55.2016209,91.9691896 54.0042743,92.8546307 C53.2217016,93.4381005 52.2592268,93.7810171 51.2157963,93.7810171 C48.5842327,93.7810171 46.4493979,91.5914694 46.4493979,88.8921534 L46.4493979,60.8743374 L46.3574481,60.8907156 C44.9712047,60.8907156 43.6609197,60.5580354 42.4955559,59.9674001 C39.6201252,58.506678 37.6402059,55.4644454 37.6402059,51.9492952 L37.6402059,38.8846872 C37.6402059,36.3747429 38.612675,33.9692089 40.3417314,32.1921848 L44.327556,28.1027774 C46.1915385,26.1906336 47.2379674,23.5998227 47.2379674,20.8943648 L47.2379674,17.9811098 L79.7702114,17.9811098 L79.7702114,21.7040573 C79.7702114,24.1791979 80.6507308,26.5714248 82.2428617,28.431363 C83.7220544,30.1592529 84.5366098,32.3784858 84.5366098,34.6785857 L84.5366098,34.6785857 Z" id="Path" fill="#FEDFC5"></path>
                        <path d="M82.3448062,70.3449754 C81.608208,69.5905591 80.6897096,69.1350432 79.7332314,68.9794512 C78.2750275,68.7388978 76.7268723,69.1954375 75.5984882,70.3511174 L83.2633047,62.5008877 C84.1947963,61.5468635 84.6635406,60.2959858 84.6635406,59.048179 C84.6635406,58.7881767 84.6425519,58.5261271 84.6015743,58.2671481 C84.4486579,57.2854858 84.0058994,56.3468158 83.2693015,55.5923993 C82.540699,54.846172 81.6361928,54.3937268 80.6937071,54.2330167 C79.4094082,54.0139597 78.0561469,54.3343563 76.976736,55.1952303 L79.8941435,52.2072501 C80.8256354,51.2532258 81.2933798,49.9992771 81.2933798,48.7504468 C81.2953789,48.4853264 81.273391,48.2181584 81.2304144,47.9561088 C81.0774976,46.9826352 80.6337401,46.0470362 79.9011398,45.2967145 C79.1655413,44.5433217 78.2460431,44.086782 77.2865668,43.9322138 C75.8293623,43.6916604 74.2792083,44.1481999 73.1518236,45.3028561 L69.8116466,48.7238325 C70.9370325,47.5701998 71.3847881,45.9825474 71.1499162,44.4890693 C70.9989988,43.5104774 70.5552407,42.5707839 69.8176434,41.8143202 C67.956659,39.9093422 64.9353083,39.9113896 63.0713254,41.8204621 L43.7278833,61.6318247 L43.6739126,61.5540287 C42.6934478,60.5498464 41.5380784,59.8363753 40.3057511,59.4105446 C38.8465475,58.906918 37.2824013,58.8137674 35.7802211,59.1239278 C36.9895609,60.9961497 38.6806382,62.5489985 40.7415132,63.5961735 C41.3132012,63.8858612 41.8988814,64.1294854 42.4965553,64.3260226 L42.4965553,88.8921534 C42.4965553,93.8209388 46.4084201,97.830503 51.2157963,97.830503 C51.7944806,97.830503 52.3641695,97.7731797 52.9188668,97.6605803 C53.539528,98.9595686 54.465023,100.102965 55.6313864,100.965886 C56.3549912,101.506364 57.1445604,101.919911 57.9751072,102.206527 L82.3388093,77.2534642 C84.204791,75.3423442 84.2067897,72.2520009 82.3448062,70.3449754 L82.3448062,70.3449754 Z" id="Path" fill="#D99C9C"></path>
                        <path d="M88.4884528,77.7908706 L88.4884528,60.5488228 C88.079676,60.8426051 87.6898886,61.1773324 87.3240884,61.5509578 L87.270118,61.6297776 L67.9266755,41.8184147 C66.0626929,39.9093422 63.0413419,39.9072948 61.1813572,41.8122731 C60.4427603,42.567713 59.9990025,43.5074067 59.8480848,44.4870219 C59.6132131,45.9794767 60.0609688,47.5681527 61.1863544,48.7207615 L57.8461776,45.2997854 C56.7187929,44.1451292 55.1696383,43.6885894 53.7124338,43.9291429 C52.7519578,44.083711 51.8334594,44.5402508 51.0968612,45.2946671 C50.3642611,46.0449891 49.9205033,46.9795645 49.7675868,47.9540617 C49.7256096,48.2150877 49.7026221,48.4822555 49.7046211,48.7473761 C49.7046211,49.9962062 50.1723658,51.2501549 51.1048568,52.2052029 L54.0212652,55.1921596 C52.9418543,54.3312853 51.5895922,54.0108888 50.3052932,54.2299458 C49.3618082,54.3906561 48.4583013,54.8431011 47.7296991,55.5893283 C46.9931012,56.3437449 46.5493434,57.2834384 46.3964269,58.2640774 C46.3554491,58.5240797 46.3344606,58.7851058 46.3354259,59.045108 C46.3344606,60.2939386 46.8032047,61.5437925 47.7346963,62.497817 L55.399513,70.3480464 C54.2721283,69.1933901 52.7229737,68.7368507 51.2657692,68.9774038 C50.3092911,69.1319723 49.3897929,69.588512 48.6541944,70.3419047 C46.7922106,72.2499537 46.7942097,75.3402968 48.6591919,77.2514168 L68.5993083,97.6728637 C69.1350159,97.7772742 69.682717,97.830503 70.2374143,97.830503 C72.0854056,97.830503 73.8524412,97.2439623 75.3396294,96.1394639 C75.7184228,95.858989 76.077227,95.5467812 76.4050481,95.2110301 C78.0511497,93.5251094 78.9576547,91.2813093 78.9576547,88.8921534 L78.9576547,86.6913457 C79.2255085,86.7169367 79.4973602,86.7292202 79.7692118,86.7292202 C84.576588,86.7292202 88.4884528,82.7196557 88.4884528,77.7908706 L88.4884528,77.7908706 Z" id="Path" fill="#917D7D"></path>
                        <path d="M84.5366098,34.6785857 L84.5366098,77.7908706 C84.5366098,80.4932576 82.4047732,82.6797343 79.7712108,82.6797343 C79.7002495,82.6797343 79.6232915,82.6797343 79.547333,82.6746162 C78.5948529,82.6285526 77.7123346,82.296896 76.9877301,81.7564186 C76.9847317,81.7564186 76.9847317,81.7533477 76.9817332,81.7533477 C75.7853863,80.8679065 75.0048124,79.4235628 75.0048124,77.7908706 L75.0048124,88.8921534 C75.0048124,90.2412997 74.4721029,91.4645391 73.6105733,92.3469095 C73.4316709,92.5311632 73.2357778,92.7010859 73.0278913,92.8546307 C72.2423199,93.4381005 71.2808448,93.7810171 70.2394133,93.7810171 C69.2089757,93.7810171 68.2564956,93.4462896 67.4789199,92.8771505 C66.4194981,92.1022615 65.6838996,90.8954 65.5159913,89.5042851 L65.5159913,93.7298357 C65.5159913,95.0800053 64.9802837,96.3052921 64.1187538,97.1876625 C63.9368532,97.3770342 63.7359629,97.5500279 63.5260773,97.7035727 C62.7455034,98.2819244 61.7860271,98.6217701 60.7495928,98.6217701 C59.7091608,98.6217701 58.7436876,98.2788535 57.9581165,97.6933366 C56.7617693,96.8078952 55.9811954,95.3635512 55.9811954,93.7298357 L55.9811954,88.8921534 C55.9811954,90.5227982 55.2016209,91.9691896 54.0042743,92.8546307 C53.2217016,93.4381005 52.2592268,93.7810171 51.2157963,93.7810171 C48.5842327,93.7810171 46.4493979,91.5914694 46.4493979,88.8921534 L46.4493979,60.8743374 L46.3574481,60.8907156 C44.9712047,60.8907156 43.6609197,60.5580354 42.4955559,59.9674001 C39.6201252,58.506678 37.6402059,55.4644454 37.6402059,51.9492952 L37.6402059,38.8846872 C37.6402059,36.3747429 38.612675,33.9692089 40.3417314,32.1921848 L44.327556,28.1027774 C45.4799269,26.920483 46.3204681,25.4781862 46.7922106,23.9069121 C47.0880491,22.935486 47.2379674,21.9118545 47.2379674,20.8943648 L47.2379674,17.9811098 L79.7702114,17.9811098 L79.7702114,21.7040573 C79.7702114,22.5383167 79.8581634,23.41864 80.08404,24.2221906 C80.4638327,25.7699213 81.2024297,27.2142651 82.2428617,28.431363 C83.7090615,30.1459455 84.5366098,32.3948639 84.5366098,34.6785857 L84.5366098,34.6785857 Z" id="Path" fill="#BE6F72"></path>
                        <path d="M84.5366098,34.6785857 L84.5366098,77.7908706 C84.5366098,80.4932576 82.4047732,82.6797343 79.7712108,82.6797343 C79.7002495,82.6797343 79.6232915,82.6797343 79.547333,82.6746162 C78.5948529,82.6285526 77.7123346,82.296896 76.9877301,81.7564186 L77.0686859,40.2133607 C77.0686859,39.962571 77.0137158,39.565402 76.9107719,39.0607518 C75.0917647,29.9862592 67.6138463,23.9069121 58.5697824,23.9069121 L46.7922106,23.9069121 C47.0880491,22.9344621 47.2379674,21.9118545 47.2379674,20.8943648 L47.2379674,17.9811098 L79.7702114,17.9811098 L79.7702114,21.7040573 C79.7702114,22.5383167 79.8581634,23.41864 80.08404,24.2221906 C80.4638327,25.7699213 81.2024297,27.2142651 82.2428617,28.431363 C83.7090615,30.1459455 84.5366098,32.3948639 84.5366098,34.6785857 L84.5366098,34.6785857 Z" id="Path" fill="#A66163"></path>
                        <path d="M81.8850569,17.9821334 L44.9572124,17.9821334 C43.7408761,17.9821334 42.7544145,16.9718091 42.7544145,15.7260497 L42.7544145,2.25608367 C42.7544145,1.01032429 43.7408761,0 44.9572124,0 L81.8850569,0 C83.1013932,0 84.0878548,1.01032429 84.0878548,2.25608367 L84.0878548,15.7260497 C84.0878548,16.9718091 83.1013932,17.9821334 81.8850569,17.9821334 Z" id="Path" fill="#404987"></path>
                        <path d="M53.1907184,8.99157848 C53.1907184,7.87274939 52.3072007,6.96683564 51.2167957,6.96683564 C50.1263908,6.96683564 49.2428733,7.87274939 49.2428733,8.99157848 C49.2428733,10.109384 50.1263908,11.0163213 51.2167957,11.0163213 C52.3072007,11.0163213 53.1907184,10.109384 53.1907184,8.99157848 Z" id="Path" fill="#E6A23C"></path>
                        <g id="Group" transform="translate(42.496555, 49.202892)" fill="#A66163">
                            <path d="M34.4861773,6.02611803 L34.4861773,32.5504556 C33.288831,31.6650145 32.5082571,30.2206708 32.5082571,28.5869548 L32.5082571,39.6882378 C32.5082571,41.0384077 31.976547,42.2616471 31.114018,43.1440175 C30.9351156,43.3282712 30.7402219,43.4981939 30.5313359,43.6517387 L30.5313359,6.02611803 C30.5313359,4.90831277 31.4178521,4.00137519 32.5082571,4.00137519 C33.5996611,4.00137519 34.4861773,4.90831277 34.4861773,6.02611803 L34.4861773,6.02611803 Z" id="Path"></path>
                            <path d="M24.983364,6.02611803 L24.983364,43.6732349 C23.9229428,42.898346 23.1883437,41.6914844 23.019436,40.3013931 L23.019436,44.5269436 C23.019436,45.8760897 22.4847277,47.1024001 21.6221984,47.9847705 C21.4402978,48.1741422 21.2404069,48.3461123 21.029522,48.5006807 L21.029522,6.02611803 C21.029522,4.90831277 21.9150388,4.00137519 23.0064431,4.00137519 C24.0978474,4.00137519 24.983364,4.90831277 24.983364,6.02611803 L24.983364,6.02611803 Z" id="Path"></path>
                            <path d="M15.4615612,6.02611803 L15.4615612,48.4894207 C14.265214,47.6039796 13.4846401,46.1596356 13.4846401,44.5269436 L13.4846401,39.6882378 C13.4846401,41.3188826 12.7050656,42.7662976 11.5077189,43.6517387 L11.5077189,6.02611803 C11.5077189,4.90831277 12.3942351,4.00137519 13.4846401,4.00137519 C14.5790428,4.00137519 15.4615612,4.90831277 15.4615612,6.02611803 L15.4615612,6.02611803 Z" id="Path"></path>
                            <path d="M3.95384199,2.02474284 L3.95384199,11.6714454 L3.86089278,11.6868 C2.47464933,11.6868 1.16436442,11.3551434 0,10.7645081 L0,2.02474284 C0,0.906937316 0.885516811,0 1.97692087,0 C3.07032421,0 3.95384199,0.906937316 3.95384199,2.02474284 Z" id="Path"></path>
                        </g>
                    </g>
                </g>
            </g>
        </g>
    </g>
</svg>