<svg width="403px" height="381px" viewBox="0 0 534 377" version="1.1"
    xmlns="http://www.w3.org/2000/svg"
    xmlns:xlink="http://www.w3.org/1999/xlink">
    <defs>
        <linearGradient x1="0%" y1="47.9941596%" x2="100%" y2="52.0058404%" id="linearGradient-kroa00oqs3-1">
            <stop stop-color="#7480BC" offset="0%"></stop>
            <stop stop-color="#404987" offset="100%"></stop>
        </linearGradient>
        <path d="M466.543171,64.2530093 L304.333565,65.862069 C301.146287,65.8668534 298.10166,65.4226101 295.952554,64.6391517 C293.803448,63.8556933 292.750503,62.8061634 293.054089,61.7500879 L301.647976,33.5028332 C302.373528,31.0736126 308.291981,29.179419 315.613041,29.0333309 L478.896883,26.3516295 C482.140541,26.2849919 485.30047,26.7106952 487.491731,27.5095213 C489.682992,28.3083474 490.670006,29.3944153 490.176359,30.4635716 L480.508236,59.7835069 C479.964091,62.2415715 473.943711,64.1683868 466.543171,64.2530093 Z" id="path-kroa00oqs3-2"></path>
        <filter x="-3.3%" y="-13.9%" width="106.6%" height="132.9%" filterUnits="objectBoundingBox" id="filter-kroa00oqs3-3">
            <feOffset dx="0" dy="1" in="SourceAlpha" result="shadowOffsetOuter1"></feOffset>
            <feGaussianBlur stdDeviation="2" in="shadowOffsetOuter1" result="shadowBlurOuter1"></feGaussianBlur>
            <feColorMatrix values="0 0 0 0 0   0 0 0 0 0   0 0 0 0 0  0 0 0 0.2 0" type="matrix" in="shadowBlurOuter1"></feColorMatrix>
        </filter>
        <path d="M459.181293,114.015461 L296.971687,115.624521 C293.784409,115.629306 290.739782,115.185062 288.590676,114.401604 C286.44157,113.618145 285.388624,112.568616 285.692211,111.51254 L294.286097,83.2652853 C295.01165,80.8360647 300.930102,78.9418711 308.251163,78.795783 L471.535004,76.1140816 C474.778662,76.047444 477.938591,76.4731473 480.129852,77.2719734 C482.321114,78.0707995 483.308127,79.1568674 482.81448,80.2260237 L473.146358,109.545959 C472.602212,112.004024 466.581832,113.930839 459.181293,114.015461 Z" id="path-kroa00oqs3-4"></path>
        <filter x="-3.3%" y="-13.9%" width="106.6%" height="132.9%" filterUnits="objectBoundingBox" id="filter-kroa00oqs3-5">
            <feOffset dx="0" dy="1" in="SourceAlpha" result="shadowOffsetOuter1"></feOffset>
            <feGaussianBlur stdDeviation="2" in="shadowOffsetOuter1" result="shadowBlurOuter1"></feGaussianBlur>
            <feColorMatrix values="0 0 0 0 0   0 0 0 0 0   0 0 0 0 0  0 0 0 0.2 0" type="matrix" in="shadowBlurOuter1"></feColorMatrix>
        </filter>
        <path d="M445.929911,160.85071 L283.720306,162.45977 C280.533028,162.464555 277.488401,162.020311 275.339294,161.236853 C273.190188,160.453394 272.137243,159.403865 272.44083,158.347789 L281.034716,130.100534 C281.760269,127.671314 287.678721,125.77712 294.999781,125.631032 L458.283623,122.949331 C461.527281,122.882693 464.68721,123.308396 466.878471,124.107222 C469.069732,124.906049 470.056746,125.992116 469.563099,127.061273 L459.894977,156.381208 C459.350831,158.839273 453.330451,160.766088 445.929911,160.85071 Z" id="path-kroa00oqs3-6"></path>
        <filter x="-3.3%" y="-13.9%" width="106.6%" height="132.9%" filterUnits="objectBoundingBox" id="filter-kroa00oqs3-7">
            <feOffset dx="0" dy="1" in="SourceAlpha" result="shadowOffsetOuter1"></feOffset>
            <feGaussianBlur stdDeviation="2" in="shadowOffsetOuter1" result="shadowBlurOuter1"></feGaussianBlur>
            <feColorMatrix values="0 0 0 0 0   0 0 0 0 0   0 0 0 0 0  0 0 0 0.2 0" type="matrix" in="shadowBlurOuter1"></feColorMatrix>
        </filter>
        <path d="M2.20799941,9.31382793 C3.42744381,9.31382793 4.41599881,10.3023829 4.41599881,11.5218273 L4.41599881,18.282422 C4.41599881,19.5018664 3.42744381,20.4904215 2.20799941,20.4904215 C0.988555007,20.4904215 1.49338868e-16,19.5018664 0,18.282422 L0,11.5218273 C-1.49338868e-16,10.3023829 0.988555007,9.31382793 2.20799941,9.31382793 Z M9.93599733,4.65691397 C11.1554417,4.65691397 12.1439967,5.64546897 12.1439967,6.86491337 L12.1439967,18.282422 C12.1439967,19.5018664 11.1554417,20.4904215 9.93599733,20.4904215 C8.71655293,20.4904215 7.72799793,19.5018664 7.72799793,18.282422 L7.72799793,6.86491337 C7.72799793,5.64546897 8.71655293,4.65691397 9.93599733,4.65691397 Z M17.6639953,0 C18.8834397,-2.24008302e-16 19.8719947,0.988555007 19.8719947,2.20799941 L19.8719947,18.282422 C19.8719947,19.5018664 18.8834397,20.4904215 17.6639953,20.4904215 C16.4445509,20.4904215 15.4559959,19.5018664 15.4559959,18.282422 L15.4559959,2.20799941 C15.4559959,0.988555007 16.4445509,2.24008302e-16 17.6639953,0 Z" id="path-kroa00oqs3-8"></path>
        <linearGradient x1="4.25349843%" y1="0%" x2="95.7465016%" y2="100%" id="linearGradient-kroa00oqs3-10">
            <stop stop-color="#7480BC" offset="0%"></stop>
            <stop stop-color="#404987" offset="100%"></stop>
        </linearGradient>
        <path d="M162.010315,167.397338 L88.266066,174.158839 C85.9224987,174.339146 83.8914072,171.995159 83.7351693,168.929945 L79.5167483,90.5866871 C79.3605105,87.43132 81.3916021,84.6365662 83.6570504,84.9070263 L154.745256,92.9306741 C157.080052,93.217364 158.912854,95.3702859 159.119915,98.0694149 L164.900714,163.430591 C164.999138,165.427406 163.73181,167.166671 162.010315,167.397338 L162.010315,167.397338 Z" id="path-kroa00oqs3-11"></path>
        <filter x="-7.6%" y="-6.2%" width="115.2%" height="114.6%" filterUnits="objectBoundingBox" id="filter-kroa00oqs3-12">
            <feOffset dx="0" dy="1" in="SourceAlpha" result="shadowOffsetOuter1"></feOffset>
            <feGaussianBlur stdDeviation="2" in="shadowOffsetOuter1" result="shadowBlurOuter1"></feGaussianBlur>
            <feColorMatrix values="0 0 0 0 0   0 0 0 0 0   0 0 0 0 0  0 0 0 0.2 0" type="matrix" in="shadowBlurOuter1"></feColorMatrix>
        </filter>
    </defs>
    <g id="About-Us" stroke="none" stroke-width="1" fill="none" fill-rule="evenodd">
        <g id="About-us-page-copy" transform="translate(-652.000000, -986.000000)">
            <g id="Icon/History-Copy" transform="translate(652.728324, 986.000000)">
                <path d="M18.1705119,175.176341 C12.9286496,175.083924 8.01821983,174.163216 4.59866829,172.631615 C1.17911674,171.100014 -0.446436622,169.093284 0.10583224,167.085254 L36.8274762,22.2433974 C38.0372324,17.4541202 48.0464523,13.6987483 60.5188593,13.3545974 L512.135851,0.0213974265 C517.916731,-0.147291765 523.590646,0.687890176 527.603197,2.29814054 C531.615747,3.9083909 533.546242,6.12488519 532.865811,8.34040254 L476.302634,175.860095 C474.081781,180.936451 462.426258,184.592848 449.057543,184.407018 L18.1705119,175.176341 Z" id="Path-Copy-4" fill="#FFFFFF" fill-rule="nonzero"></path>
                <g id="Path-Copy-6">
                    <use fill="black" fill-opacity="1" filter="url(#filter-kroa00oqs3-3)" xlink:href="#path-kroa00oqs3-2"></use>
                    <use fill="url(#linearGradient-kroa00oqs3-1)" fill-rule="evenodd" xlink:href="#path-kroa00oqs3-2"></use>
                </g>
                <g id="Path-Copy-5">
                    <use fill="black" fill-opacity="1" filter="url(#filter-kroa00oqs3-5)" xlink:href="#path-kroa00oqs3-4"></use>
                    <use fill="url(#linearGradient-kroa00oqs3-1)" fill-rule="evenodd" xlink:href="#path-kroa00oqs3-4"></use>
                </g>
                <text id="Roadmap-Copy" font-family="RubikRoman-Bold, Rubik" font-size="14" font-weight="bold" fill="#FAFCFF">
                    <tspan x="306.254144" y="100.3659">Strategy</tspan>
                </text>
                <g id="Path-Copy-4">
                    <use fill="black" fill-opacity="1" filter="url(#filter-kroa00oqs3-7)" xlink:href="#path-kroa00oqs3-6"></use>
                    <use fill="url(#linearGradient-kroa00oqs3-1)" fill-rule="evenodd" xlink:href="#path-kroa00oqs3-6"></use>
                </g>
                <text id="OKR,-KPI-Copy" font-family="RubikRoman-Bold, Rubik" font-size="14" font-weight="bold" fill="#FAFCFF">
                    <tspan x="294.475138" y="147.43295">OKRs</tspan>
                </text>
                <text id="Strategy-Copy" font-family="RubikRoman-Bold, Rubik" font-size="14" font-weight="bold" fill="#FAFCFF">
                    <tspan x="332.756906" y="52.0670498">Vision</tspan>
                </text>
                <g id="Futureworks/Logo/Icon-+-Text-Copy" transform="translate(44.171271, 39.517241)">
                    <g id="Futureworks/Logo">
                        <mask id="mask-kroa00oqs3-9" fill="white">
                            <use xlink:href="#path-kroa00oqs3-8"></use>
                        </mask>
                        <use id="Combined-Shape" fill="#404987" xlink:href="#path-kroa00oqs3-8"></use>
                    </g>
                    <text id="Futureworks" font-family="RubikRoman-Bold, Rubik" font-size="18" font-weight="bold" fill="#404987">
                        <tspan x="30.3309392" y="16.2452107">Futureworks</tspan>
                    </text>
                </g>
                <path d="M156.290826,167.446767 L82.4872605,174.15878 C80.193259,174.340186 78.136568,171.981911 77.978361,168.898013 L73.6276685,90.5307237 C73.4694615,87.4468258 75.447049,84.6350365 77.7410505,84.9071451 L148.855097,93.0704044 C151.201506,93.3684911 153.029762,95.5410653 153.205789,98.2404686 L158.980345,163.637246 C159.109456,164.560583 158.890063,165.503314 158.376925,166.230139 C157.863787,166.956964 157.105317,167.399309 156.290826,167.446767 Z" id="Path-Copy-18" fill="#F8AB5D" fill-rule="nonzero"></path>
                <g id="Path-Copy-17">
                    <use fill="black" fill-opacity="1" filter="url(#filter-kroa00oqs3-12)" xlink:href="#path-kroa00oqs3-11"></use>
                    <use fill="url(#linearGradient-kroa00oqs3-10)" fill-rule="evenodd" xlink:href="#path-kroa00oqs3-11"></use>
                </g>
                <path d="M111.502237,157.141558 L94.0145653,158.068966 C92.6857633,158.034637 91.6156902,156.808876 91.585722,155.286743 L88.3472642,100.847916 C88.2663028,99.364064 89.2378401,97.9729526 90.3713003,98.0656933 L107.616088,99.4568047 C108.811664,99.6120287 109.71642,100.768004 109.721085,102.146287 L113.36435,154.452076 C113.466305,155.772997 112.648301,156.954455 111.502237,157.141558 Z" id="Path-Copy-16" fill="#22272E" fill-rule="nonzero"></path>
                <path d="M112.984301,155.588359 L95.4695463,156.605364 C94.1448194,156.571141 93.078028,155.349157 93.0481516,153.831714 L89.8196254,99.3757278 C89.7389123,97.8964481 90.7074701,96.5096233 91.8374543,96.6020783 L109.110069,97.988903 C110.301979,98.1436487 111.203961,99.2960622 111.208611,100.670098 L114.840703,152.99962 C114.914065,154.288046 114.101928,155.420566 112.984301,155.588359 L112.984301,155.588359 Z" id="Path-Copy-15" fill="#FAFCFF" fill-rule="nonzero"></path>
                <line x1="98.6491713" y1="100.110345" x2="101.593923" y2="100.403065" id="Path-Copy-14" stroke="#22272E" stroke-width="1.8" stroke-linecap="round" stroke-linejoin="round"></line>
                <line x1="105.054006" y1="100.256705" x2="105.495718" y2="100.256705" id="Path-Copy-13" stroke="#22272E" stroke-width="1.8" stroke-linecap="round" stroke-linejoin="round"></line>
                <line x1="92.7596685" y1="105.37931" x2="111.900552" y2="106.842912" id="Path-Copy-12" stroke="#22272E" stroke-width="1.8" stroke-linecap="round" stroke-linejoin="round"></line>
                <line x1="95.7044199" y1="150.677778" x2="114.845304" y2="149.360536" id="Path-Copy-11" stroke="#22272E" stroke-width="1.8" stroke-linecap="round" stroke-linejoin="round"></line>
                <path d="M149.652153,101.143101 L134.14648,99.5361457 C133.702888,99.4720757 133.261776,99.6841915 132.946346,100.11325 C132.630915,100.542308 132.474974,101.142322 132.522077,101.74571 L133.038932,109.981356 C133.099185,111.038046 133.73675,111.86192 134.515663,111.889616 L150.021336,112.693094 C150.473594,112.732248 150.915477,112.497714 151.228721,112.052263 C151.541964,111.606812 151.694587,110.995924 151.64574,110.383095 L151.128884,102.950926 C150.964075,101.986695 150.37441,101.264823 149.652153,101.143101 L149.652153,101.143101 Z" id="Path-Copy-10" fill="#FAFCFF" fill-rule="nonzero"></path>
                <path d="M136.928571,122.255843 C136.950695,122.835289 136.816983,123.402142 136.561345,123.812641 C136.305707,124.223141 135.952701,124.437854 135.591852,124.402328 C134.78317,124.413916 134.095585,123.457017 133.987789,122.169984 C133.969294,121.576802 134.111757,120.99985 134.378368,120.588196 C134.644979,120.176542 135.009583,119.97057 135.377977,120.023499 C136.166284,120.054452 136.823668,121.000868 136.928571,122.255843 L136.928571,122.255843 Z" id="Path-Copy-9" fill="#6DAFA7" fill-rule="nonzero"></path>
                <line x1="139.875691" y1="122.064368" x2="150.18232" y2="122.357088" id="Path-Copy-8" stroke="#FAFCFF" stroke-width="1.8" stroke-linecap="round" stroke-linejoin="round"></line>
                <path d="M136.929637,129.487421 C136.945745,130.07318 136.81186,130.64395 136.559212,131.066597 C136.306564,131.489244 135.957245,131.72681 135.592736,131.723883 C134.801429,131.741666 134.120274,130.828619 133.988454,129.573439 C133.966425,128.970126 134.105822,128.380452 134.371495,127.953111 C134.637168,127.525769 135.00376,127.301544 135.378831,127.336978 C136.156569,127.332539 136.817775,128.249408 136.929637,129.487421 L136.929637,129.487421 Z" id="Path-Copy-7" fill="#6DAFA7" fill-rule="nonzero"></path>
                <line x1="139.875691" y1="128.211494" x2="150.18232" y2="127.918774" id="Path-Copy-6" stroke="#FAFCFF" stroke-width="1.8" stroke-linecap="round" stroke-linejoin="round"></line>
                <path d="M136.929637,138.220197 C136.945745,138.816487 136.81186,139.39752 136.559212,139.827766 C136.306564,140.258012 135.957245,140.49985 135.592736,140.49687 C134.801683,140.606831 134.096583,139.683179 133.988454,138.395326 C133.966425,137.781165 134.105822,137.180889 134.371495,136.745863 C134.637168,136.310838 135.00376,136.082582 135.378831,136.118653 C136.147434,136.069021 136.815673,136.974572 136.929637,138.220197 Z" id="Path-Copy-5" fill="#6DAFA7" fill-rule="nonzero"></path>
                <line x1="141.348066" y1="138.749425" x2="151.654696" y2="137.871264" id="Path-Copy-4" stroke="#FAFCFF" stroke-width="1.8" stroke-linecap="round" stroke-linejoin="round"></line>
                <g id="Girl-Copy" transform="translate(195.089779, 256.862069) scale(-1, 1) translate(-195.089779, -256.862069) translate(80.980663, 137.578544)" fill-rule="nonzero">
                    <path d="M223.897591,94.931128 C215.970339,102.891827 205.143652,112.347419 193.372085,118.560061 C187.772262,121.517696 181.953577,123.743959 176.134972,124.72448 C145.604494,129.87623 131.157346,117.00893 126.482537,98.9215239 C126.373127,98.4995793 126.268664,98.0816526 126.179172,97.6637259 C125.980243,96.8198349 125.812813,95.9813023 125.676879,95.1481281 C122.886888,78.5797455 130.81417,64.0045516 159.206157,59.2144686 C167.993804,57.7316325 178.174014,58.8487827 188.214876,61.1915834 C198.807819,63.6629769 209.241569,67.4966507 217.730822,71.0771574 C222.790208,73.1975556 226.440157,77.007984 227.712011,81.4971953 C227.726931,81.5494362 227.74188,81.601677 227.751837,81.6539178 C229.042108,86.3230214 227.622703,91.2126259 223.897591,94.931128 L223.897591,94.931128 Z" id="Path" fill="#6C63FF"></path>
                    <path d="M192.067862,87.153156 L174.400252,89.9291816 L192.690553,95.1129467 L196.565072,96.2095899 L192.700461,95.3193264 L171.370838,90.40264 L159.915343,92.2034013 L190.916438,101.522848 L155.917274,92.8346795 L130.446264,96.8368214 L154.108506,105.37931 L128.177891,97.1929276 L125.810678,97.5652195 L115.215054,99.2283952 L115.215054,99.2324418 L103.991798,100.992737 L99.7219197,101.664481 L98.026818,101.93156 L97.1767956,98.597117 L98.9015798,98.3785973 L102.444985,97.9294189 L115.392996,96.2905231 L125.311567,95.0320135 L155.991408,91.143178 L156.223682,91.0946181 L156.273102,91.1108047 L159.169132,90.7425595 L178.981564,74.7016189 L161.328736,90.4107333 L160.730756,90.5442731 L183.908683,87.606402 L191.52923,82.3781234 L204.931903,73.1800766 L191.721918,83.9765521 L187.971028,87.0439162 L191.993752,86.4450113 L226.706281,81.2855266 C226.721107,81.3381331 226.735962,81.3907396 226.745856,81.4433461 L198.245408,86.1819793 L215.740048,93.9717902 L195.003463,86.6918576 L192.067862,87.153156 Z" id="Path" fill="#3F3D56"></path>
                    <path d="M117.652081,45.7245516 C117.651811,45.7146282 117.648597,45.7049298 117.642744,45.6963816 C117.457074,45.0401489 117.092146,44.4316754 116.578376,43.921672 C115.685362,43.0350474 114.40981,42.5027078 113.049151,42.4487838 C112.993132,42.4487838 112.941781,42.4444444 112.885761,42.4444444 C112.365345,42.4408729 111.847331,42.5060234 111.349895,42.6379252 C109.469856,43.1451676 108.113649,44.5604123 107.890696,46.2477086 L107.601263,51.4350116 L106.728293,67.1659406 L106.611586,69.1982044 L105.201763,94.5391251 C103.711952,95.644251 102.925802,97.2973565 103.08703,98.9859601 C103.166028,99.8412294 103.481365,100.667773 104.006682,101.396507 C104.613591,102.23089 105.474158,102.905932 106.494878,103.348285 C107.360323,103.721009 108.314406,103.915709 109.281845,103.915709 C111.892274,103.910514 114.220289,102.498637 115.107865,100.382386 C115.12187,100.350193 115.135875,100.313974 115.14988,100.28178 L115.14988,100.277756 C115.521607,99.336568 115.579837,98.3243994 115.317961,97.3561246 C115.205764,96.955655 115.042957,96.567 114.83246,96.1971309 C114.694736,95.9621104 114.537145,95.7361408 114.360963,95.5210508 L116.279652,68.2364004 L117.432718,51.793173 L117.736157,47.4670669 L117.750161,47.2819498 C117.783446,47.0591533 117.795935,46.8344133 117.787508,46.6098942 C117.789844,46.5979053 117.789844,46.5856646 117.787508,46.5736757 C117.775168,46.2874613 117.729801,46.0030171 117.652081,45.7245516 Z" id="Path" fill="#FFB6B6"></path>
                    <path d="M120.725113,48.9774555 C120.725262,48.4349751 120.64771,47.8940613 120.493797,47.364078 C120.451739,47.1940406 120.393909,47.0240033 120.330823,46.8579203 C119.542822,44.7401228 117.635101,42.9578733 115.05259,41.9268375 C112.924793,41.0725133 110.475062,40.7853856 108.102566,41.11224 C101.36283,42.0336051 97.3410691,43.7260698 96.1476838,46.1421817 C95.3065319,47.8465095 95.7376225,50.1281733 96.8100918,52.5403308 L96.8100918,52.5442852 C97.7552325,54.5761869 98.9301348,56.5434271 100.321904,58.4244136 C100.579507,58.7763316 100.83711,59.1243347 101.094714,59.4644094 C102.819374,61.7311565 104.707785,63.9251556 106.751465,66.0365502 L106.814552,66.1037743 L107.934336,66.2144962 L109.348524,66.3528988 L118.690575,67.2663551 L119.279382,67.3256705 L119.310925,67.131907 C120.337463,61.1121322 120.809983,55.0462127 120.725113,48.9774555 L120.725113,48.9774555 Z" id="Path" fill="#404987"></path>
                    <ellipse id="Oval" fill="#404987" cx="78.7720994" cy="231.980843" rx="78.7720994" ry="6.5862069"></ellipse>
                    <polygon id="Path" fill="#FFB6B6" points="75.089741 222.467433 67.1088735 222.467028 63.3121547 196.122605 75.0911602 196.12301"></polygon>
                    <path d="M79.2816236,232.084638 L78.4858882,224.827337 L77.8160604,218.68684 L74.935297,218.556355 L65.8347035,218.141871 L64.3842491,218.076628 L64.3842491,222.463246 L59.458748,225.053768 L56.8600174,226.423867 L51.6121931,229.183253 C50.3179155,229.86481 49.7555841,231.108516 50.2242585,232.252943 C50.6929329,233.39737 52.0837161,234.176609 53.6569611,234.176245 L69.6472125,234.176245 L71.8984385,230.633946 L72.4020685,229.835681 L72.6387745,230.795133 L72.6387745,230.798972 L73.4798365,234.176245 L79.5082873,234.176245 L79.2816236,232.084638 Z" id="Path" fill="#2F2E41"></path>
                    <polygon id="Path" fill="#FFB6B6" points="113.372928 215.719631 105.353699 218.076628 89.8149171 195.210332 101.650092 191.731801"></polygon>
                    <path d="M122.918666,225.517094 L114.768434,212.222222 L111.980197,212.902277 L103.155886,215.049818 L101.746448,215.391854 L103.814671,219.639214 L94.8780135,229.724704 C94.2467158,230.436354 94.0665844,231.333354 94.3887412,232.161126 C94.7108979,232.988898 95.5001768,233.657082 96.5325715,233.97604 C97.2927163,234.213985 98.1349294,234.24067 98.9173822,234.051602 L98.9327025,234.051602 C99.0126601,234.035914 99.0911453,234.015982 99.1676091,233.991949 L114.329287,229.517904 L114.824633,225.14726 L114.896101,224.542767 L115.391447,225.171121 L117.965204,228.444133 L123.679558,226.757916 L122.918666,225.517094 Z" id="Path" fill="#2F2E41"></path>
                    <path d="M91.7312562,153.678161 C91.7312562,153.678161 127.313687,199.900204 123.375161,201.973205 C119.436635,204.046208 87.5211137,212.170075 84.6690875,210.545307 C81.8170613,208.920539 79.5082873,155.751138 79.5082873,155.751138 L91.7312562,153.678161 Z" id="Path" fill="#2F2E41"></path>
                    <path d="M70.5432009,80.4980843 C75.834269,80.6675112 97.5815341,83.2499121 97.1005311,83.9258394 C96.6259089,84.5206559 96.0976228,85.0855082 95.520104,85.6156599 C95.520104,85.6156599 96.619557,89.727556 96.138554,90.121846 C95.657551,90.5161361 105.552497,99.8101502 99.78044,119.750002 C94.0083837,139.689853 94.6268532,153.490066 94.6268532,153.490066 C94.6268532,153.490066 96.963167,211.957817 90.2978107,213.140691 C83.6324543,214.323565 57.3833399,213.534985 56.1464595,211.225557 C54.909579,208.91613 59.9258022,137.211461 59.9258022,137.211461 C59.9258022,137.211461 60.4755117,101.161993 61.7811131,96.7684437 C63.0867146,92.3748934 67.2725135,80.4389971 70.5432009,80.4980843 Z" id="Path" fill="#2F2E41"></path>
                    <ellipse id="Oval" fill="#FFB6B6" cx="94.968232" cy="18.2950192" rx="16.9323204" ry="13.9042146"></ellipse>
                    <path d="M112.639086,35.8345318 C115.028665,37.7967028 125.360028,45.8762431 114.114995,60.1885805 C102.869964,74.500918 95.7012933,84.8888889 95.7012933,84.8888889 L67.7292818,82.1764702 L72.0164356,68.2104046 C72.0164356,68.2104046 69.9080075,57.1875976 77.0767081,51.7050604 C84.2454088,46.2225232 92.1169105,37.2195993 92.1169105,37.2195993 L96.176323,36.6106855 C96.176323,36.6106855 110.249508,33.8723608 112.639086,35.8345318 Z" id="Path" fill="#404987"></path>
                    <path d="M103.066298,57.2882774 C103.066298,57.2882774 63.5395122,81.2707784 61.0075231,72.8519756 C59.3619667,67.380546 61.2823805,46.816126 62.370313,38.0536398 L70.3617452,38.1244474 C70.3617452,38.1244474 68.6737641,57.4544525 72.0497263,59.6699288 C72.0497263,59.6699288 84.280355,50.3696369 86.8159368,50.5057506 C89.3515187,50.6418642 103.066298,57.2882774 103.066298,57.2882774 Z" id="Path" fill="#FFB6B6"></path>
                    <path d="M111.900552,41.1146203 C111.900552,41.1146203 106.719165,61.1227543 91.4423347,64.3984674 L73.6187845,58.3879551 C73.6187845,58.3879551 96.2842466,38.2907254 104.092397,38.0648102 C111.900552,37.8388951 111.900552,41.1146203 111.900552,41.1146203 Z" id="Path" fill="#404987"></path>
                    <ellipse id="Oval" fill="#FFB6B6" cx="68.4654696" cy="35.8582375" rx="6.62569061" ry="5.12260536"></ellipse>
                    <path d="M119.257676,22.0999732 C119.209066,18.7198752 119.154972,15.3022856 118.189672,12.0261048 C117.224372,8.74992405 115.244767,5.57819883 112.038415,3.63532515 C108.832094,1.69242736 104.277588,1.22397626 100.979467,3.04895173 C98.5217917,0.50001878 94.2723227,-0.474125868 90.5131608,0.214863098 C86.7539994,0.903852066 83.5054157,3.07252655 81.2592296,5.76279191 C79.0130435,8.45305728 77.6864074,11.6386631 76.7876316,14.8622424 C76.468463,16.0069349 76.3347255,17.4679189 77.4788997,18.1095372 C78.375944,18.6125831 79.5600198,18.3022697 80.5618484,17.9783249 C83.3177291,17.0872064 86.0736115,16.1960959 88.8294956,15.3049934 C91.6160809,18.3724237 95.6306913,21.1703707 95.0776068,25.0375772 C94.5240678,28.908058 91.3128712,32.9757991 89.6147293,36.5900383 C91.983859,35.9016118 94.3529771,35.2131679 96.7220836,34.5247065 C97.4807594,33.5053206 99.3610992,31.9014736 99.2267229,30.7167907 C99.748641,31.5972537 100.101435,32.5364266 100.273038,33.5021829 C100.273922,33.5099809 100.273588,33.5179235 100.274406,33.5257216 L113.459527,29.694267 C115.028836,29.2382501 116.676213,28.7382655 117.75986,27.6580181 C119.236992,26.1855922 119.285696,24.0471496 119.257676,22.0999732 Z" id="Path" fill="#2F2E41"></path>
                </g>
                <text id="THE-ONLY-NORWEGIAN-O" font-family="RubikRoman-Bold, Rubik" font-size="14" font-weight="bold" fill="#404987">
                    <tspan x="285.640884" y="226.685824">
                  THE ONLY NORWEGIAN OKR TOLL
                    </tspan>
                </text>
            </g>
        </g>
    </g>
</svg>