<?xml version="1.0" encoding="UTF-8"?>
<svg width="150px" height="150px" viewBox="0 0 150 150" version="1.1" xmlns="http://www.w3.org/2000/svg" xmlns:xlink="http://www.w3.org/1999/xlink">
    <title>Integration/Icon/data-integration</title>
    <g id="Integration" stroke="none" stroke-width="1" fill="none" fill-rule="evenodd">
        <g id="Integration-page-Copy" transform="translate(-137.000000, -1665.000000)" fill-rule="nonzero">
            <g id="Customize-Integration" transform="translate(14.000000, 1600.000000)">
                <g id="Integration/Icon/data-integration" transform="translate(123.000000, 65.000000)">
                    <path d="M92.8710938,119.238281 L79.3945312,119.238281 L79.3945312,74.7070312 C79.3945312,72.2780273 77.4290039,70.3125 75,70.3125 C72.5709961,70.3125 70.6054688,72.2780273 70.6054688,74.7070312 L70.6054688,119.238281 L57.1289062,119.238281 C54.6999023,119.238281 52.734375,121.203809 52.734375,123.632812 C52.734375,126.061816 54.6999023,128.027344 57.1289062,128.027344 L92.8710938,128.027344 C95.3000977,128.027344 97.265625,126.061816 97.265625,123.632812 C97.265625,121.203809 95.3000977,119.238281 92.8710938,119.238281 Z" id="Path" fill="#E6A23C"></path>
                    <path d="M92.8710938,128.027344 C95.3000977,128.027344 97.265625,126.061816 97.265625,123.632812 C97.265625,121.203809 95.3000977,119.238281 92.8710938,119.238281 L79.3945312,119.238281 L79.3945312,74.7070312 C79.3945312,72.2780273 77.4290039,70.3125 75,70.3125 L75,128.027344 L92.8710938,128.027344 Z" id="Path" fill="#E6A23C"></path>
                    <path d="M105.555762,41.9671875 C105.684375,40.3494141 105.68877,38.7357422 105.564258,37.1305664 L112.035938,33.3925781 C114.138867,32.1779297 114.859863,29.4916992 113.645215,27.3887695 L104.856152,12.1623047 C104.272559,11.1539063 103.311328,10.415625 102.186914,10.115332 C101.0625,9.81064453 99.8651367,9.96943359 98.8523438,10.5530273 L92.3806641,14.2951172 C91.050293,13.3810547 89.6513672,12.5742188 88.1835938,11.8790039 L88.1835938,4.39453125 C88.1835938,1.96552734 86.2180664,0 83.7890625,0 L66.2109375,0 C63.7819336,0 61.8164063,1.96552734 61.8164063,4.39453125 L61.8164063,11.7758789 C61.0740234,12.1192383 60.3357422,12.496875 59.6106445,12.9131836 C58.894043,13.3294922 58.2073242,13.7756836 57.5419922,14.2479492 L51.1476563,10.5530273 C50.1348633,9.96943359 48.9331055,9.81064453 47.8130859,10.115332 C46.6886719,10.415625 45.7274414,11.1539062 45.1438477,12.1623047 L36.3547852,27.3887695 C35.1401367,29.4916992 35.8611328,32.1782227 37.9640625,33.3925781 L44.4442383,37.134668 C44.315625,38.7524414 44.3112305,40.3661133 44.4357422,41.9712891 L37.9640625,45.7092773 C35.8611328,46.9239258 35.1401367,49.6101563 36.3547852,51.7130859 L45.1438477,66.9395508 C45.7274414,67.9479492 46.6886719,68.6862305 47.8130859,68.9865234 C48.9331055,69.2783203 50.1348633,69.1239258 51.1476563,68.5488281 L57.6193359,64.8067383 C58.949707,65.7208008 60.3486328,66.5276367 61.8164063,67.2228516 L61.8164063,74.7070312 C61.8164063,77.1360352 63.7819336,79.1015625 66.2109375,79.1015625 L83.7890625,79.1015625 C86.2180664,79.1015625 88.1835938,77.1360352 88.1835938,74.7070312 L88.1835938,67.3256836 C88.9259766,66.9823242 89.6598633,66.609082 90.3808594,66.1927734 C90.3808594,66.1927734 90.3852539,66.1883789 90.3893555,66.1883789 C91.105957,65.7720703 91.7926758,65.3258789 92.4580078,64.8536133 L98.8523438,68.5485352 C99.8651367,69.1236328 101.0625,69.2780273 102.186914,68.9862305 C103.311328,68.6859375 104.272559,67.9476563 104.856152,66.9392578 L113.645215,51.712793 C114.859863,49.6101563 114.138867,46.9236328 112.035938,45.7092773 L105.555762,41.9671875 Z M75,52.734375 C67.7302734,52.734375 61.8164063,46.8205078 61.8164063,39.5507813 C61.8164063,32.2810547 67.7302734,26.3671875 75,26.3671875 C82.2697266,26.3671875 88.1835938,32.2810547 88.1835938,39.5507813 C88.1835938,46.8205078 82.2697266,52.734375 75,52.734375 Z" id="Shape" fill="#C0DAFC"></path>
                    <g id="Data_Integration_5_" transform="translate(75.000000, 0.000000)" fill="#78A0D4">
                        <path d="M13.1835938,39.5507812 C13.1835938,46.8205078 7.26972656,52.734375 0,52.734375 L0,79.1015625 L8.7890625,79.1015625 C11.2180664,79.1015625 13.1835938,77.1360352 13.1835938,74.7070312 L13.1835938,67.3256836 C13.9259766,66.9823242 14.6598633,66.609082 15.3808594,66.1927734 C15.3808594,66.1927734 15.3852539,66.1883789 15.3893555,66.1883789 C16.105957,65.7720703 16.7926758,65.3258789 17.4580078,64.8536133 L23.8523438,68.5485352 C24.8651367,69.1236328 26.0625,69.2780273 27.1869141,68.9862305 C28.3113281,68.6859375 29.2725586,67.9476562 29.8561523,66.9392578 L38.6452148,51.712793 C39.8598633,49.6098633 39.1388672,46.9233398 37.0359375,45.7089844 L30.5557617,41.9668945 C30.684375,40.3491211 30.6887695,38.7354492 30.5642578,37.1302734 L37.0359375,33.3922852 C39.1388672,32.1776367 39.8598633,29.4914062 38.6452148,27.3884766 L29.8561523,12.1620117 C29.2725586,11.1536133 28.3113281,10.415332 27.1869141,10.1150391 C26.0625,9.81035156 24.8651367,9.96914062 23.8523438,10.5527344 L17.3806641,14.2948242 C16.050293,13.3807617 14.6513672,12.5739258 13.1835938,11.8787109 L13.1835938,4.39453125 C13.1835938,1.96552734 11.2180664,0 8.7890625,0 L0,0 L0,26.3671875 C7.26972656,26.3671875 13.1835938,32.2810547 13.1835938,39.5507812 L13.1835938,39.5507812 Z" id="Path"></path>
                    </g>
                    <g id="Group" transform="translate(88.476562, 97.265625)">
                        <polygon id="Path" fill="#404987" points="61.5234375 17.578125 61.5234375 35.15625 30.7617188 43.9453125 0 35.15625 0 17.578125 30.7617188 8.7890625"></polygon>
                        <g fill="#78A0D4" id="Path">
                            <path d="M61.5234375,35.15625 L61.5234375,48.3398438 C61.5234375,50.8004883 59.5901367,52.734375 57.1289062,52.734375 L4.39453125,52.734375 C1.93330078,52.734375 0,50.8004883 0,48.3398438 L0,35.15625 L61.5234375,35.15625 Z"></path>
                            <path d="M61.5234375,4.39453125 L61.5234375,17.578125 L0,17.578125 L0,4.39453125 C0,1.93330078 1.93330078,0 4.39453125,0 L57.1289062,0 C59.5901367,0 61.5234375,1.93330078 61.5234375,4.39453125 Z"></path>
                        </g>
                    </g>
                    <g id="Group" transform="translate(0.000000, 97.265625)">
                        <polygon id="Path" fill="#404987" points="61.5234375 17.578125 61.5234375 35.15625 30.7617188 43.9453125 0 35.15625 0 17.578125 30.7617188 8.7890625"></polygon>
                        <g fill="#C0DAFC" id="Path">
                            <path d="M61.5234375,35.15625 L61.5234375,48.3398438 C61.5234375,50.8004883 59.5901367,52.734375 57.1289062,52.734375 L4.39453125,52.734375 C1.93330078,52.734375 0,50.8004883 0,48.3398438 L0,35.15625 L61.5234375,35.15625 Z"></path>
                            <path d="M61.5234375,4.39453125 L61.5234375,17.578125 L0,17.578125 L0,4.39453125 C0,1.93330078 1.93330078,0 4.39453125,0 L57.1289062,0 C59.5901367,0 61.5234375,1.93330078 61.5234375,4.39453125 Z"></path>
                        </g>
                    </g>
                </g>
            </g>
        </g>
    </g>
</svg>