<?xml version="1.0" encoding="UTF-8"?>
<svg viewBox="0 0 598 488" version="1.1"
    xmlns="http://www.w3.org/2000/svg"
    xmlns:xlink="http://www.w3.org/1999/xlink">
    <title>Group 8</title>
    <defs>
        <rect id="path-1" x="0" y="0" width="114.615385" height="25.7823529" rx="4"></rect>
        <filter x="-5.7%" y="-21.3%" width="111.3%" height="150.4%" filterUnits="objectBoundingBox" id="filter-2">
            <feOffset dx="0" dy="1" in="SourceAlpha" result="shadowOffsetOuter1"></feOffset>
            <feGaussianBlur stdDeviation="2" in="shadowOffsetOuter1" result="shadowBlurOuter1"></feGaussianBlur>
            <feColorMatrix values="0 0 0 0 0   0 0 0 0 0   0 0 0 0 0  0 0 0 0.2 0" type="matrix" in="shadowBlurOuter1"></feColorMatrix>
        </filter>
        <rect id="path-3" x="0" y="0" width="114.615385" height="25.7823529" rx="4"></rect>
        <filter x="-5.7%" y="-21.3%" width="111.3%" height="150.4%" filterUnits="objectBoundingBox" id="filter-4">
            <feOffset dx="0" dy="1" in="SourceAlpha" result="shadowOffsetOuter1"></feOffset>
            <feGaussianBlur stdDeviation="2" in="shadowOffsetOuter1" result="shadowBlurOuter1"></feGaussianBlur>
            <feColorMatrix values="0 0 0 0 0   0 0 0 0 0   0 0 0 0 0  0 0 0 0.2 0" type="matrix" in="shadowBlurOuter1"></feColorMatrix>
        </filter>
        <rect id="path-5" x="0" y="0" width="114.615385" height="25.7823529" rx="4"></rect>
        <filter x="-5.7%" y="-21.3%" width="111.3%" height="150.4%" filterUnits="objectBoundingBox" id="filter-6">
            <feOffset dx="0" dy="1" in="SourceAlpha" result="shadowOffsetOuter1"></feOffset>
            <feGaussianBlur stdDeviation="2" in="shadowOffsetOuter1" result="shadowBlurOuter1"></feGaussianBlur>
            <feColorMatrix values="0 0 0 0 0   0 0 0 0 0   0 0 0 0 0  0 0 0 0.2 0" type="matrix" in="shadowBlurOuter1"></feColorMatrix>
        </filter>
        <path d="M2.01638177,10.4171123 C3.12999867,10.4171123 4.03276353,11.3198772 4.03276353,12.4334941 L4.03276353,20.9012653 C4.03276353,22.0148822 3.12999867,22.9176471 2.01638177,22.9176471 C0.902764867,22.9176471 3.24500321e-15,22.0148822 0,20.9012653 L0,12.4334941 C-1.36378737e-16,11.3198772 0.902764867,10.4171123 2.01638177,10.4171123 Z M9.07371795,5.20855615 C10.1873348,5.20855615 11.0900997,6.11132102 11.0900997,7.22493792 L11.0900997,20.9012653 C11.0900997,22.0148822 10.1873348,22.9176471 9.07371795,22.9176471 C7.96010105,22.9176471 7.05733618,22.0148822 7.05733618,20.9012653 L7.05733618,7.22493792 C7.05733618,6.11132102 7.96010105,5.20855615 9.07371795,5.20855615 Z M16.1310541,0 C17.244671,-2.04568106e-16 18.1474359,0.902764867 18.1474359,2.01638177 L18.1474359,20.9012653 C18.1474359,22.0148822 17.244671,22.9176471 16.1310541,22.9176471 C15.0174372,22.9176471 14.1146724,22.0148822 14.1146724,20.9012653 L14.1146724,2.01638177 C14.1146724,0.902764867 15.0174372,2.04568106e-16 16.1310541,0 Z" id="path-7"></path>
    </defs>
    <g id="About-Us" stroke="none" stroke-width="1" fill="none" fill-rule="evenodd">
        <g id="About-us-page-copy" transform="translate(-71.000000, -3128.000000)">
            <g id="Group-8" transform="translate(72.000000, 3129.000000)">
                <g id="undraw_professor_8lrt">
                    <rect id="Rectangle" fill="#2F2E41" fill-rule="nonzero" x="132.762821" y="127.001961" width="300.865385" height="209.123529"></rect>
                    <rect id="Rectangle" fill="#FFFFFF" fill-rule="nonzero" x="137.615488" y="131.776471" width="291.16005" height="192.890196"></rect>
                    <rect id="Rectangle" fill="#2F2E41" fill-rule="nonzero" x="354.352564" y="315.117647" width="44.8910256" height="14.3235294"></rect>
                    <g id="Group"></g>
                </g>
                <g id="Undraw/About/Futurework-illustrator-" transform="translate(76.410256, 97.400000)">
                    <g id="DrawKit-Vector-Illustration-Project-Manager-(5)" opacity="0.896653675" transform="translate(43.935897, 43.925490)"></g>
                    <g id="Group-5" transform="translate(142.314103, 58.249020)" fill-rule="nonzero">
                        <path d="M98.5332926,136.55098 L9.0457506,136.55098 C4.05224675,136.545308 0.00563711444,132.499628 0,127.507307 L0,9.0436734 C0.00563488011,4.05134503 4.0522558,0.00566066496 9.04576698,0 L98.5333089,0 C103.52683,0.00564937388 107.573467,4.05133506 107.579109,9.0436734 L107.579109,127.507307 C107.573467,132.499652 103.52682,136.54534 98.5332926,136.55098 L98.5332926,136.55098 Z" id="Path" fill="#E6E6E6"></path>
                        <path d="M64.3785006,129.218337 L15.3360205,129.218337 C10.7892527,129.213119 7.10470136,125.529352 7.09959015,120.983661 L7.09959015,15.5672087 C7.10471733,11.0215562 10.7892911,7.33785527 15.3360205,7.3327293 L92.2429612,7.3327293 C96.7896907,7.33785527 100.474264,11.0215562 100.479392,15.5672087 L100.479392,93.1259974 C100.456832,113.049896 84.30712,129.195783 64.3785006,129.218337 Z" id="Path" fill="#FFFFFF"></path>
                    </g>
                    <g id="Group-4" transform="translate(155.685897, 71.617647)">
                        <g id="Rectangle">
                            <use fill="black" fill-opacity="1" filter="url(#filter-2)" xlink:href="#path-1"></use>
                            <use fill="#404987" fill-rule="evenodd" xlink:href="#path-1"></use>
                        </g>
                        <text id="Strategy" font-family="RubikRoman-Bold, Rubik" font-size="14" font-weight="bold" fill="#FAFCFF">
                            <tspan x="5.73076923" y="17.3911765">Strateg</tspan>
                            <tspan x="5.73076923" y="34.3911765">y</tspan>
                        </text>
                    </g>
                    <g id="Group-3" transform="translate(155.685897, 102.174510)">
                        <g id="Rectangle-Copy">
                            <use fill="black" fill-opacity="1" filter="url(#filter-4)" xlink:href="#path-3"></use>
                            <use fill="#404987" fill-rule="evenodd" xlink:href="#path-3"></use>
                        </g>
                        <text id="Roadmap" font-family="RubikRoman-Bold, Rubik" font-size="14" font-weight="bold" fill="#FAFCFF">
                            <tspan x="6.68589744" y="17.3911765">Roadma</tspan>
                            <tspan x="6.68589744" y="34.3911765">p</tspan>
                        </text>
                    </g>
                    <g id="Group-2" transform="translate(155.685897, 132.731373)">
                        <g id="Rectangle-Copy-2">
                            <use fill="black" fill-opacity="1" filter="url(#filter-6)" xlink:href="#path-5"></use>
                            <use fill="#404987" fill-rule="evenodd" xlink:href="#path-5"></use>
                        </g>
                        <text id="OKR,-KPI" font-family="RubikRoman-Bold, Rubik" font-size="14" font-weight="bold" fill="#FAFCFF">
                            <tspan x="6.68589744" y="17.3911765">OKR, </tspan>
                            <tspan x="6.68589744" y="34.3911765">KPI</tspan>
                        </text>
                    </g>
                    <g id="undraw_File_bundle_re_6q1e" transform="translate(0.000000, 84.031373)" fill-rule="nonzero">
                        <path d="M77.937411,173.026022 C78.9864732,171.889272 79.4760655,170.348147 79.2744479,168.817335 C79.0728304,167.286523 78.2007138,165.923272 76.8927678,165.094407 L81.1858974,147.054902 L72.0995822,150.360874 L69.4157838,166.984655 C68.1351369,169.316362 68.8080565,172.233473 70.9821319,173.774784 C73.1562072,175.316094 76.144255,174.994426 77.9373804,173.02604 L77.937411,173.026022 Z" id="Path" fill="#FFB8B8"></path>
                        <path d="M99.3333333,97.8368137 L95.7695391,107.070922 C95.7695391,107.070922 97.2968804,116.305025 94.7513097,118.357052 C92.205739,120.409079 93.2239684,120.409073 93.2239684,121.94809 C93.0466272,124.180688 91.9361213,126.23218 90.169286,127.591154 C88.132827,129.130172 78.9687797,160.423529 78.9687797,160.423529 L69.8047264,160.423529 C70.1007674,158.038795 70.1007674,155.626182 69.8047264,153.241448 C69.2956146,149.65041 71.3320676,140.416301 72.3502971,138.877284 C73.3685265,137.338267 72.3502971,135.286246 72.3502971,132.208206 C72.3502971,129.130166 74.386756,127.591154 74.386756,122.461099 C74.386756,117.331044 80.4961209,77.3165816 79.9870032,72.6995303 C79.4778855,68.082479 85.0781446,63.9784314 85.0781446,63.9784314 L90.169286,63.9784314 L99.3333333,97.8368137 Z" id="Path" fill="#404987"></path>
                        <polygon id="Path" fill="#FFB8B8" points="121.401671 117.325136 129.897436 155.64902 75.4551282 152.225621 90.2593262 114.588235"></polygon>
                        <path d="M1.94858349,260.737334 C3.57725613,266.598972 6.12021747,272.169754 9.48459934,277.246236 C17.0025432,288.562 27.7613956,297.215231 39.5864948,304.141414 C40.4057579,304.627146 41.237069,305.100885 42.0683801,305.568627 L50.3634191,305.568627 L50.6525708,304.908991 L50.6525708,304.902994 L50.9898723,304.141414 L51.0320824,304.051464 L51.0501544,304.141414 L51.381474,305.568627 L55.4536274,305.568627 C55.7909349,305.094889 56.1222906,304.62115 56.4475863,304.141414 C56.9234818,303.439801 57.3813053,302.732191 57.8150328,302.012587 C58.5806376,300.75403 59.2647307,299.448091 59.8631364,298.102742 C59.9354906,297.952825 59.9957184,297.802907 60.0559403,297.65299 L59.7848606,297.359152 L60.9112751,292.453855 L58.6463198,292.08206 L61.1282051,284.46026 C61.0378452,284.178416 60.9353952,283.896571 60.8270055,283.614726 C59.4354268,280.10666 56.8210498,277.486104 53.7186931,275.285317 C50.5259766,273.012569 46.8091726,271.189574 43.3936346,269.294618 C41.7911619,268.401111 40.212966,267.45963 38.6767995,266.464178 L38.6767995,266.458182 C36.7129776,265.192847 34.8073877,263.839593 32.9600297,262.398419 C32.9285005,262.378411 32.8983164,262.356376 32.8696698,262.332455 C32.8441373,262.314247 32.8199769,262.294205 32.7973818,262.272488 C24.5154827,255.83165 17.5072066,247.915724 12.1290301,238.927354 C12.1274225,238.927387 12.1258709,238.926766 12.1247339,238.925634 C12.1235969,238.924502 12.1229729,238.922958 12.1230061,238.921357 C11.9423284,238.633516 11.7737108,238.345675 11.6050209,238.051866 L11.6050209,238.04587 C9.40256235,234.274953 7.50697824,230.334525 5.93644308,226.262364 L5.93644308,226.256367 C5.81591502,225.956532 5.70753133,225.656698 5.59307545,225.356863 C5.43645162,225.620717 5.28585178,225.884572 5.14127594,226.148427 C5.13966834,226.148394 5.13811677,226.149015 5.13697979,226.150147 C5.1358428,226.151278 5.13521879,226.152823 5.13525195,226.154423 C-0.708015711,236.558653 -1.26225323,249.091764 1.94858349,260.737334 Z" id="Path" fill="#F0F0F0"></path>
                        <path d="M4.77969249,225.507007 C4.72075914,231.104865 5.30494207,236.691055 6.52083832,242.156535 C7.06725645,244.65764 7.74775628,247.127777 8.55941202,249.556326 C10.1350126,254.307609 12.1943321,258.885785 14.7052011,263.219337 C14.8447418,263.455115 14.9782579,263.684847 15.1238595,263.914579 L15.1238595,263.920624 C16.196951,265.723538 17.3612912,267.470949 18.6123759,269.156097 C20.5056894,271.840616 22.8446909,274.183632 25.5287388,276.084332 C27.7210805,277.527758 30.2003039,278.482541 32.7969868,278.883436 C33.2823456,278.974119 33.7798384,279.040621 34.2833982,279.101077 C36.2916066,279.336854 38.3664791,279.427538 40.3564502,279.850729 C41.3643753,280.049102 42.3457393,280.363568 43.2807794,280.787794 C46.4841475,282.268961 48.286042,285.370344 49.0747501,288.683322 C49.2142907,289.263697 49.3234419,289.850119 49.4083918,290.43654 C50.0696932,294.940467 49.341655,299.619776 49.717808,304.129779 C49.7602405,304.60738 49.8148798,305.091027 49.881556,305.568627 L50.3305796,305.568627 L50.6217949,304.903614 L50.6217949,304.897568 C50.5915024,304.643654 50.567192,304.389739 50.5429241,304.129779 C50.3973233,301.913906 50.3790764,299.691546 50.4882727,297.473595 C50.5125406,296.476075 50.530778,295.472508 50.5186076,294.468942 C50.5064736,293.66488 50.4761751,292.860818 50.4155174,292.062801 L50.4155174,292.056755 C50.373006,291.561018 50.3245126,291.071326 50.2577758,290.581634 C50.0650969,289.082216 49.694424,287.6109 49.153542,286.198588 C48.0860026,283.255138 45.8079881,280.905962 42.8924499,279.741908 C42.0119028,279.412882 41.10455,279.160048 40.180453,278.986211 C38.1480979,278.599294 36.0488726,278.502564 34.0042986,278.24865 C33.7858872,278.224468 33.5674757,278.19424 33.3550948,278.157966 C33.0820805,278.115647 32.8151938,278.067282 32.5482829,278.018888 C29.8731183,277.545706 27.346417,276.454551 25.1707381,274.832897 C22.5852513,272.793169 20.3373392,270.361412 18.5091886,267.626535 C17.5142698,266.205824 16.5677534,264.754884 15.6881012,263.261626 C15.6881346,263.260013 15.6875061,263.258455 15.686361,263.257314 C15.6852159,263.256173 15.6836533,263.255547 15.6820342,263.25558 C15.6395229,263.183033 15.5970964,263.116532 15.5546275,263.043985 L15.5485606,263.031894 C11.7751773,256.606106 9.02062415,249.638019 7.38235019,242.374146 C7.32774732,242.10814 7.26704107,241.842135 7.20645616,241.576129 C6.08040753,236.331366 5.53717421,230.979021 5.58657116,225.615797 L5.58657116,225.609752 C5.58657116,225.355837 5.59257141,225.107999 5.59864446,224.854054 C5.61077843,224.334134 4.80390582,224.219268 4.79183252,224.739188 C4.78576554,224.993102 4.77969855,225.247017 4.78576554,225.500931 C4.78414004,225.500896 4.78257096,225.501525 4.78142358,225.502673 C4.7802762,225.503821 4.77965063,225.505387 4.77969249,225.507007 L4.77969249,225.507007 Z" id="Path" fill="#FFFFFF"></path>
                        <path d="M16.0030022,263.404453 C11.1445822,265.660548 5.21375136,264.366583 1.99323718,260.34786 C1.67921013,259.953165 2.33533401,259.488487 2.64978084,259.883707 C5.64226939,263.632383 11.1760194,264.828791 15.6881355,262.702627 C16.1630005,262.479509 16.4751508,263.182617 16.0030022,263.404453 L16.0030022,263.404453 Z" id="Path" fill="#FFFFFF"></path>
                        <path d="M32.3530469,278.273678 C34.1493763,273.316024 33.8661609,267.912194 31.5598742,263.139715 C31.3309624,262.667045 32.133457,262.362261 32.3620979,262.834362 C34.752083,267.804874 35.0344908,273.428947 33.1529611,278.584179 C32.9732649,279.075432 32.1743249,278.76226 32.3530211,278.273678 L32.3530469,278.273678 Z" id="Path" fill="#FFFFFF"></path>
                        <path d="M7.86903282,241.80991 C9.68375369,241.297638 11.1296648,239.868758 11.7168088,238.007458 C11.8636544,237.537122 12.5421303,237.836339 12.3962436,238.303609 C11.7386426,240.356 10.1476225,241.935276 8.14852159,242.519977 C7.9604451,242.593129 7.75018445,242.501476 7.66810095,242.310561 C7.59203233,242.114489 7.68167443,241.891151 7.86904925,241.80991 L7.86903282,241.80991 Z" id="Path" fill="#FFFFFF"></path>
                        <path d="M38.2624618,266.522391 L38.2624618,266.528378 C38.4481033,270.803522 38.9826117,275.056354 39.8606546,279.244447 L39.8606546,279.250434 C39.9085837,279.537803 39.9744226,279.819185 40.0342457,280.100567 C41.4789998,286.577734 43.5044616,292.911496 46.0860543,299.025 C46.7983402,300.749213 47.5445821,302.455465 48.3247801,304.143757 C48.5401946,304.622705 48.7617506,305.095666 48.9891369,305.568627 L49.8751097,305.568627 L50.1624328,304.910074 L50.1624328,304.904087 L50.4976011,304.143757 L50.5395443,304.053954 L50.557502,304.143757 L50.8867264,305.568627 L59.4465185,305.568627 L61.1105442,304.143757 L63.5348328,302.06632 L60.1468685,298.366447 L59.59018,297.755788 L59.5063774,297.665985 L59.237012,297.37263 L60.3563031,292.475386 L58.1056713,292.104201 L60.5718613,284.494915 L61.7391114,280.896818 L62.0324203,279.992804 L63.7384611,274.730362 L68.8862495,275.694275 L69.724359,272.760719 C68.1813551,269.183484 66.897073,265.500089 65.8814125,261.738927 C65.8754266,261.708993 65.8634548,261.685046 65.8574689,261.655142 C63.1377481,251.524161 62.3218382,240.976281 63.4511979,230.547468 L63.4511979,230.541481 C63.4870773,230.206218 63.5289427,229.864967 63.5769017,229.535691 L63.5769017,229.523717 C64.0899778,225.201811 64.9548169,220.928986 66.1628096,216.747779 C66.2466122,216.430476 66.3423446,216.119159 66.4322169,215.807843 C66.1568177,215.92758 65.8875002,216.04133 65.6120771,216.161067 L65.6060912,216.167018 L65.5941194,216.167018 C65.1571488,216.358597 64.7201783,216.56215 64.2952214,216.777677 C54.0832497,221.740776 46.5709778,231.056315 42.3030327,241.796724 C42.2910609,241.826658 42.2790891,241.850605 42.2670814,241.88054 C40.0401266,247.510927 38.7129921,253.456763 38.3343824,259.49984 C38.1908418,261.837937 38.166837,264.181843 38.2624618,266.522391 L38.2624618,266.522391 Z" id="Path" fill="#F0F0F0"></path>
                        <path d="M54.4423077,305.568627 L55.4379885,305.568627 C55.7530614,305.094469 56.0933401,304.632019 56.4336189,304.175422 C56.9755443,303.467135 57.5342735,302.774435 58.1098067,302.097321 C58.6076219,301.511941 59.1054371,300.932414 59.6032523,300.352887 C60.119934,299.749945 60.6303899,299.147003 61.1282051,298.5265 L60.5421695,297.929412 C60.4476477,298.046488 60.3531699,298.163564 60.252252,298.28064 C58.6391166,300.253372 56.8936757,302.150035 55.4001293,304.175422 C55.0661457,304.632036 54.7447714,305.094469 54.4423077,305.568627 Z" id="Path" fill="#FFFFFF"></path>
                        <path d="M66.7659536,215.566547 C66.610639,215.765397 66.4493508,215.970273 66.3000099,216.175149 C65.1351506,217.699668 64.0340101,219.272392 62.9965885,220.893323 C61.1489782,223.753301 59.5079569,226.74379 58.0862586,229.841582 C57.9727595,230.082613 57.8592604,230.329669 57.7517349,230.576726 C54.7094602,237.345736 52.7265319,244.549822 51.8736759,251.932034 C51.8617286,252.004343 51.855755,252.070627 51.8497813,252.142936 C51.6526831,253.866304 51.5252456,255.595699 51.4674685,257.331119 C51.276966,260.599175 51.5974893,263.877114 52.4172769,267.044651 C52.5367496,267.460428 52.6681696,267.87018 52.8115369,268.267881 C53.1709008,269.242565 53.6209312,270.180744 54.1556053,271.069861 C54.5397823,271.718773 54.9668691,272.340836 55.4339637,272.931822 C55.7147246,273.293368 56.0074329,273.648888 56.318062,273.992357 C56.4972711,274.191207 56.6824539,274.390057 56.8676366,274.588907 C57.0229512,274.739551 57.1722921,274.896221 57.3276067,275.046865 C58.9404888,276.625616 60.7206327,278.089876 62.1782002,279.831322 L61.8854919,280.741176 C60.4816872,278.945499 58.6717109,277.457135 57.0408721,275.890436 C56.0170821,274.919355 55.0851546,273.854223 54.2571571,272.708833 C54.1496317,272.552163 54.0361326,272.395493 53.9345807,272.232797 C53.3811185,271.417094 52.9032152,270.551764 52.5069113,269.647745 C52.3038076,269.195812 52.1186249,268.731828 51.951363,268.249767 C50.9753944,265.134244 50.5310105,261.874158 50.6371628,258.608545 C50.6563601,256.516674 50.7799718,254.427105 51.0075283,252.347776 C51.0314229,252.076616 51.0612911,251.811513 51.0971329,251.540323 C51.7028643,246.591064 52.8077375,241.717083 54.3945807,236.994128 C56.4029428,231.002478 59.165423,225.295647 62.6143056,220.013525 C63.5999557,218.501058 64.6453422,217.024746 65.7504651,215.584588 C65.8938324,215.385738 66.0431733,215.192914 66.1984879,214.994063 C66.5150369,214.584348 67.0825384,215.156801 66.7659536,215.566547 Z" id="Path" fill="#FFFFFF"></path>
                        <path d="M52.0248566,252.087026 C46.7360122,251.137096 42.9077779,246.460042 42.9818251,241.038918 C42.9868956,240.816464 43.1656259,240.638028 43.3860822,240.635294 C43.6065384,240.632622 43.7895107,240.806625 43.7999339,241.028888 C43.7217168,246.078765 47.3007255,250.43319 52.232629,251.288583 C52.7512536,251.379165 52.540487,252.177099 52.0248323,252.087044 L52.0248566,252.087026 Z" id="Path" fill="#FFFFFF"></path>
                        <path d="M56.5352047,274.258978 C60.8764957,271.350937 63.9380517,266.948749 65.1093964,261.930214 C65.2250185,261.432922 66.0077386,261.634685 65.8922549,262.1314 C64.6633569,267.351588 61.4678043,271.926409 56.943339,274.942855 C56.5118936,275.230071 56.1060778,274.544645 56.5351807,274.258978 L56.5352047,274.258978 Z" id="Path" fill="#FFFFFF"></path>
                        <path d="M57.7980084,229.87797 C59.6605935,230.61889 61.7741175,230.381568 63.4223994,229.246423 C63.8376181,228.958619 64.2313365,229.633549 63.81882,229.919473 C61.992647,231.164677 59.662698,231.431487 57.5983067,230.631804 C57.3928977,230.571285 57.2702149,230.362995 57.3179908,230.155886 C57.374075,229.948428 57.5882106,229.82445 57.7980084,229.87797 L57.7980084,229.87797 Z" id="Path" fill="#FFFFFF"></path>
                        <polygon id="Path" fill="#FFB8B8" points="112.70627 293.154902 118.530281 293.154295 121.301282 269.282353 112.705128 269.282353"></polygon>
                        <path d="M110.093129,289.915062 L119.6775,289.335294 L119.6775,293.496999 L128.789629,299.874975 C129.713434,300.521417 130.115116,301.701587 129.781032,302.787782 C129.446947,303.873977 128.454731,304.613725 127.332117,304.613725 L115.921562,304.613725 L113.954784,300.497163 L113.186849,304.613725 L108.884615,304.613725 L110.093129,289.915062 Z" id="Path" fill="#2F2E41"></path>
                        <polygon id="Path" fill="#FFB8B8" points="53.4871795 289.923624 59.6831263 291.245098 67.8141026 268.368074 58.6702496 266.417647"></polygon>
                        <path d="M52.942271,286.470588 L62.3742879,287.964564 L61.5088378,292.035114 L69.0351632,300.232884 C69.7982062,301.063827 69.9430136,302.304507 69.3925677,303.295053 C68.8421218,304.285599 67.7243321,304.795833 66.6337092,304.554381 L55.5481033,302.100628 L54.4933815,297.651294 L52.8912621,301.512545 L48.7115385,300.587387 L52.942271,286.470588 Z" id="Path" fill="#2F2E41"></path>
                        <path d="M10.5064103,305.091176 C10.5064103,305.217923 10.5810774,305.339588 10.7154334,305.429209 C10.8497894,305.518831 11.0321764,305.569009 11.2221788,305.568627 L179.803501,305.568627 C180.198788,305.568627 180.519231,305.354864 180.519231,305.091176 C180.519231,304.827489 180.198788,304.613725 179.803501,304.613725 L11.2221788,304.613725 C11.0321784,304.613348 10.8497951,304.663528 10.7154405,304.753148 C10.5810859,304.842769 10.5064103,304.964431 10.5064103,305.091176 Z" id="Path" fill="#CCCCCC"></path>
                        <path d="M131.287486,187.358922 C126.991912,211.091674 125.918018,221.338675 125.918018,221.338675 C125.918018,221.338675 129.139699,225.114203 126.991912,227.273371 C124.844125,229.432538 126.991912,233.744843 126.991912,233.744843 L121.369414,278.881372 L120.169533,285.515686 L108.909706,283.918342 L110.570485,277.675133 L107.679834,234.28765 C107.679834,234.28765 105.532047,229.969315 106.60594,228.889731 C107.679834,227.810147 105.532047,221.338675 105.532047,221.338675 L102.850313,170.097642 L86.213963,226.193787 C86.213963,226.193787 87.827767,228.352955 86.213963,229.969315 C84.6061225,231.585675 81.3904415,239.679539 81.3904415,239.679539 L69.1745913,272.247057 L66.7748294,277.072013 L65.498018,276.463791 L59.8825751,275.402301 L58.8506774,275.209339 L57.0148595,274.85953 L55.8329768,274.636375 L55.4309867,274.564001 L53.4871795,274.196068 L54.0751212,271.572498 L58.3756206,265.009617 L62.7502366,232.82207 L62.9422176,231.959609 L63.1461973,231.048899 C63.1461973,231.048899 62.0723039,228.352955 63.6801144,226.730563 C64.6350157,225.726807 65.0367114,224.31455 64.7540078,222.955035 C64.7013581,222.89862 64.6532137,222.838121 64.6100221,222.774099 C64.42012,222.511994 64.2891129,222.21155 64.2260602,221.893545 C64.0820745,221.218051 64.208062,220.271153 65.2939543,219.179507 C65.5997514,218.852871 65.856437,218.483073 66.0558787,218.081829 C67.6877168,214.975764 68.5096353,208.39573 68.5096353,208.39573 C68.5096353,208.39573 69.9614913,156.280174 74.7130199,148.318996 C74.9649949,147.902844 80.0091685,139.913621 80.2731484,139.750767 C85.6366163,136.518047 127.496606,140.380074 127.496606,140.380074 C127.496606,140.380074 130.027539,147.215282 130.141527,147.926957 C130.759574,151.925651 134.929131,167.226793 131.287486,187.358922 Z" id="Path" fill="#2F2E41"></path>
                        <path d="M174.742506,71.7435301 C174.549808,73.2541004 173.691602,74.60253 172.398814,75.4259819 C171.106027,76.2494338 169.511457,76.4633203 168.044175,76.0100887 L157.078252,90.7156863 L153.775641,81.7959914 L164.695379,69.1987875 C165.648257,66.7536725 168.29661,65.4010269 170.859901,66.0502598 C173.423191,66.6994927 175.091198,69.1453906 174.742488,71.7435301 L174.742506,71.7435301 Z" id="Path" fill="#FFB8B8"></path>
                        <path d="M75.4324033,133.686275 C74.4294904,133.686275 73.8598102,133.489986 73.639208,133.069106 C73.3155324,132.451353 73.877235,131.644373 74.5275378,130.709482 C75.0100555,130.099126 75.3906074,129.414986 75.6544873,128.683498 C76.043423,127.130848 78.6685486,87.9114598 77.0983142,80.0751285 C76.7350712,78.2619354 77.0478178,75.937683 78.0274028,73.1671991 C80.7033151,65.6008449 84.355867,63.2754095 91.6323144,58.6434014 C92.2229577,58.2673236 92.8380156,57.8745439 93.477488,57.4650622 C94.3046825,56.9345485 94.2586134,55.1755658 94.209889,53.3128826 C94.1558423,51.2426841 94.0997331,49.1017484 95.1159098,47.7636696 L95.182065,47.6764297 L95.2886767,47.6516816 C97.7466663,47.0846193 106.013604,46.0318372 110.90946,47.6593475 L110.977085,47.682333 L111.027588,47.7324327 C112.190566,48.8930861 112.296585,51.1413016 112.399066,53.3152307 C112.482937,55.1001084 112.562368,56.7853902 113.220358,57.517522 C118.250581,63.1132977 123.955621,63.0042493 124.013502,63.0030723 L124.296129,62.9948209 L124.32418,63.2754034 C126.512226,85.4869898 130.039556,119.011568 130.789104,120.33079 C130.869018,120.453849 130.873798,120.61103 130.801509,120.738698 C129.701141,122.790625 79.21253,133.686275 75.4324033,133.686275 Z" id="Path" fill="#404987"></path>
                        <ellipse id="Oval" fill="#FFB8B8" cx="108.407051" cy="27.2147059" rx="14.8044872" ry="14.8009804"></ellipse>
                        <path d="M117.904775,54.6971435 C117.199225,53.6878225 113.620743,41.3581149 112.052836,37.5735224 C111.892414,38.3868691 110.094363,41.5403315 110.052259,42.379495 L110.036655,42.6903603 L109.728519,42.7303579 C109.265053,42.7895957 98.3181318,44.1207168 92.6211051,37.6492077 C89.2457704,33.8158952 88.4803526,28.0661139 90.3429473,20.5561909 C90.0041641,20.4895745 89.6795606,20.3643231 89.3837042,20.1860575 C88.3865643,19.4946749 87.7441972,18.3982462 87.6278121,17.189001 L87.3124168,17.2737171 C85.7060556,17.7078393 83.8942418,18.2823127 82.723802,19.60832 C81.4208528,21.0830323 81.1889358,23.0867681 80.9428695,25.2079457 C80.8470971,26.2206136 80.6876885,27.226225 80.4655921,28.2187962 C79.6718454,31.4267331 77.4372399,34.4314301 73.8238397,37.1496157 C70.1861171,39.8863464 66.4772615,41.4519584 62.799999,41.8020899 C58.4567265,42.2173104 54.2680713,40.7876793 51.5990287,37.9811448 C48.6225797,34.8521029 47.8440745,30.0378431 49.7473192,26.5342916 L50.0536395,25.9699974 L50.3900809,26.5168345 C52.0842768,29.271391 55.7862358,30.7591839 59.3934694,30.1338143 C62.48642,29.5978878 65.5525199,27.6305107 68.0270252,24.594182 C70.2859471,21.8225494 71.8440376,18.5491607 73.350955,15.3833975 C74.8836369,12.1645499 76.468222,8.83589486 78.7507362,6.01154064 C81.3254154,2.8257816 84.5385,0.745326859 87.7984011,0.15268317 C90.1723764,-0.277092912 92.2908424,0.210107541 93.6112113,1.49213987 C94.5441441,2.45549389 95.0966948,3.72509223 95.1663935,5.06548923 C95.9783925,4.88371874 96.8249064,4.93244722 97.6107778,5.20619708 C99.1549331,5.83554955 100.229906,7.26289993 100.410115,8.92316177 C105.193267,6.40276381 111.523619,6.81289471 114.797681,8.70391552 C116.168493,9.49580969 116.955705,10.493138 117.095437,11.6057141 C120.962531,11.8220468 125.121795,15.5957347 125.121795,20.9423123 L125.121795,21.3146278 L124.750152,21.3146278 C121.689501,21.3146278 118.895244,23.0780275 117.275451,26.0314596 C115.338307,29.537507 115.467208,33.8234888 117.611536,37.206345 C119.926283,40.7649933 120.708882,45.109106 119.781912,49.2538511 L118.385329,55.3843137 L117.904775,54.6971435 Z" id="Path" fill="#2F2E41"></path>
                        <path d="M134.665932,109.813725 L124.920647,104.312399 C107.926899,92.4915303 103.74092,83.1041465 103.217704,77.3079553 C102.659336,71.1235098 105.942494,67.7408345 106.082672,67.6004515 L106.158463,67.5446532 L114.943301,63.0400933 C117.20056,61.8827744 119.844209,61.7533817 122.202974,62.6847707 C124.56174,63.6161596 126.40873,65.5187391 127.27496,67.9094083 L135.400767,90.3370492 L144.409779,83.6686073 L148.251879,82.1490794 L151.352133,77.9887163 L159.86684,73.0048636 L166.192308,78.7182204 L158.237377,94.6841805 L153.817904,95.8136978 L152.880549,98.2366085 L152.797146,98.2900551 L134.665932,109.813725 Z" id="Path" fill="#404987"></path>
                    </g>
                    <g id="Futureworks/Logo/Icon-+-Text" transform="translate(57.307692, 0.000000)">
                        <g id="Futureworks/Logo">
                            <mask id="mask-8" fill="white">
                                <use xlink:href="#path-7"></use>
                            </mask>
                            <use id="Combined-Shape" fill="#404987" xlink:href="#path-7"></use>
                        </g>
                        <text id="Futureworks" font-family="RubikRoman-Bold, Rubik" font-size="18" font-weight="bold" fill="#404987">
                            <tspan x="27.6987179" y="17.4588235">Futureworks</tspan>
                        </text>
                    </g>
                </g>
            </g>
        </g>
    </g>
</svg>