<?xml version="1.0" encoding="UTF-8"?>
<svg width="133px" height="133px" viewBox="0 0 133 134" version="1.1"
    xmlns="http://www.w3.org/2000/svg"
    xmlns:xlink="http://www.w3.org/1999/xlink">
    <title>Integration/Integration/icon</title>
    <g id="Integration" stroke="none" stroke-width="1" fill="none" fill-rule="evenodd">
        <g id="Integration-page-Copy" transform="translate(-548.000000, -123.000000)" fill-rule="nonzero">
            <g id="Header-2" transform="translate(14.000000, 71.000000)">
                <g id="Group-2" transform="translate(178.000000, 52.500000)">
                    <g id="Integration/Integration/icon" transform="translate(356.000000, 0.000000)">
                        <polygon id="Path" fill="#F0AE42" points="64.2393768 64.2833333 68.7606232 64.2833333 68.7606232 77.5833333 64.2393768 77.5833333"></polygon>
                        <path d="M115.239037,95.3166667 L68.7154108,95.3166667 L68.7154108,86.45 L64.2845892,86.45 L64.2845892,95.3166667 L17.7609632,95.3166667 C14.0903504,95.3166667 11.1147309,98.2939731 11.1147309,101.966667 L11.1147309,106.4 L15.5455524,106.4 L15.5455524,101.966667 C15.5455524,100.742435 16.5374256,99.75 17.7609632,99.75 L64.2845892,99.75 L64.2845892,106.4 L68.7154108,106.4 L68.7154108,99.75 L115.239037,99.75 C116.462574,99.75 117.454448,100.742435 117.454448,101.966667 L117.454448,106.4 L121.885269,106.4 L121.885269,101.966667 C121.885269,98.2939731 118.90965,95.3166667 115.239037,95.3166667 Z" id="Path" fill="#F0AE42"></path>
                        <path d="M33.2984386,66.5 L77.6281057,66.5 C86.2919822,66.4811112 93.6736245,60.2013489 95.0846042,51.6492857 C96.4955838,43.0972225 91.5227011,34.7772954 83.3244679,31.9738819 C80.2202813,22.7814429 70.3001579,17.7998759 61.0776245,20.8022324 C56.6214324,14.4944076 48.5977048,11.7963384 41.2380045,14.1309358 C33.8783043,16.4655331 28.8744871,23.2961173 28.8654719,31.0203668 C28.8654719,31.2132873 28.8876367,31.4017728 28.8942862,31.5946933 C20.2751077,33.8436108 14.6613236,42.1406866 15.7768709,50.9820063 C16.8924181,59.823326 24.3910218,66.4644717 33.2984386,66.5 L33.2984386,66.5 Z" id="Path" fill="#C0DAFC"></path>
                        <path d="M94.7155414,53.2 C97.0271349,44.2107049 92.0246579,34.9576264 83.2413773,31.9762459 C80.1379443,22.7827246 70.2202297,17.8005711 60.9999355,20.803281 C58.7918129,17.6732941 55.6334631,15.3399486 51.9943343,14.1500666 C56.460386,7.78901851 64.5514563,5.08981286 71.9378409,7.49685212 C76.3941925,1.19230953 84.4135163,-1.50314406 91.7688903,0.831243608 C99.1242642,3.16563128 104.126007,9.99360326 104.13774,17.7161895 C104.13774,17.9091328 104.115581,18.0976405 104.108933,18.2905837 C112.726019,20.5397659 118.33844,28.8378186 117.223163,37.6801792 C116.107887,46.5225399 108.611104,53.1644675 99.7058499,53.2 L94.7155414,53.2 Z" id="Path" fill="#78A0D4"></path>
                        <ellipse id="Oval" fill="#B52F28" cx="66.4058074" cy="82.0166667" rx="6.68767705" ry="6.65"></ellipse>
                        <path d="M59.9065156,82.0058934 C59.9108759,83.6373359 60.5242283,85.2091247 61.6277966,86.4168073 C64.5008367,87.7072993 67.8906923,86.8164042 69.7464876,84.2831171 C71.6022829,81.7498301 71.4144417,78.2697572 69.2966087,75.9483562 C67.2325942,75.0264411 64.8388211,75.2092336 62.9407157,76.4337028 C61.0426102,77.658172 59.8998728,79.756785 59.9065156,82.0058934 L59.9065156,82.0058934 Z" id="Path" fill="#D23F34"></path>
                        <rect id="Rectangle" fill="#404987" x="0" y="106.4" width="26.5623229" height="26.6" rx="13.2811615"></rect>
                        <rect id="Rectangle" fill="#404987" x="53.1246459" y="106.4" width="26.5623229" height="26.6" rx="13.2811615"></rect>
                        <rect id="Rectangle" fill="#404987" x="106.437677" y="106.4" width="26.5623229" height="26.6" rx="13.2811615"></rect>
                        <g id="Group" transform="translate(0.000000, 106.400000)" fill="#78A0D4">
                            <path d="M125.84136,17.7333333 L125.84136,0 L110.775845,0 C108.328652,0 106.344811,1.98487094 106.344811,4.43333333 L106.344811,19.95 L123.625843,19.95 C124.849439,19.95 125.84136,18.9575645 125.84136,17.7333333 Z" id="Path"></path>
                            <path d="M72.6689542,17.7333333 L72.6689542,0 L57.6034393,0 C55.1562469,0 53.1724055,1.98487094 53.1724055,4.43333333 L53.1724055,19.95 L70.4534373,19.95 C71.6770335,19.95 72.6689542,18.9575645 72.6689542,17.7333333 Z" id="Path"></path>
                            <path d="M19.4965487,17.7333333 L19.4965487,0 L4.43103379,0 C1.9838414,0 0,1.98487094 0,4.43333333 L0,19.95 L17.2810318,19.95 C18.504628,19.95 19.4965487,18.9575645 19.4965487,17.7333333 Z" id="Path"></path>
                        </g>
                    </g>
                </g>
            </g>
        </g>
    </g>
</svg>