<svg xmlns="http://www.w3.org/2000/svg" xmlns:xlink="http://www.w3.org/1999/xlink" width="1096" height="904"><defs><linearGradient id="a" x1="38.884%" x2="123.114%" y1="56.788%" y2="36.472%"><stop offset="0%" stop-color="#32466C"/><stop offset="100%" stop-color="#10192A"/></linearGradient><linearGradient id="c" x1="28.29%" x2="62.639%" y1="10.368%" y2="64.678%"><stop offset="0%" stop-color="#25C2F2" stop-opacity=".476"/><stop offset="100%" stop-color="#293F64"/></linearGradient><linearGradient id="d" x1="53.199%" x2="50%" y1="43.599%" y2="57.564%"><stop offset="0%" stop-color="#101A2A"/><stop offset="100%" stop-color="#213350" stop-opacity="0"/></linearGradient><linearGradient id="f" x1="-40.037%" x2="59.974%" y1="-47.999%" y2="100%"><stop offset="0%" stop-color="#5B79A2"/><stop offset="100%" stop-color="#243655"/></linearGradient><linearGradient id="g" x1="32.894%" x2="59.959%" y1="-28.733%" y2="79.159%"><stop offset="0%" stop-color="#25C2F2" stop-opacity=".476"/><stop offset="100%" stop-color="#293F64"/></linearGradient><linearGradient id="i" x1="0%" x2="100%" y1="50%" y2="50%"><stop offset="0%" stop-color="#5B79A2"/><stop offset="100%" stop-color="#2E4469"/></linearGradient><linearGradient id="l" x1="0%" x2="100%" y1="50%" y2="50%"><stop offset="0%" stop-color="#5B79A2"/><stop offset="100%" stop-color="#2E4469"/></linearGradient><linearGradient id="o" x1="16.628%" x2="60.646%" y1="50%" y2="92.56%"><stop offset="0%" stop-color="#5B79A2"/><stop offset="100%" stop-color="#2F4367"/></linearGradient><linearGradient id="p" x1="35.51%" x2="58.436%" y1="-28.733%" y2="79.159%"><stop offset="0%" stop-color="#25C2F2" stop-opacity=".476"/><stop offset="100%" stop-color="#293F64"/></linearGradient><linearGradient id="r" x1="36.975%" x2="72.402%" y1="50%" y2="27.803%"><stop offset="0%" stop-color="#090F19"/><stop offset="100%" stop-color="#213350" stop-opacity="0"/></linearGradient><linearGradient id="s" x1="98.741%" x2="1.259%" y1="48.741%" y2="48.741%"><stop offset="0%" stop-color="#21C8F6"/><stop offset="100%" stop-color="#637BFF"/></linearGradient><linearGradient id="t" x1="98.741%" x2="1.259%" y1="48.741%" y2="48.741%"><stop offset="0%" stop-color="#21C8F6"/><stop offset="100%" stop-color="#637BFF"/></linearGradient><linearGradient id="u" x1="46.318%" x2="39.225%" y1="81.515%" y2="6.036%"><stop offset="0%" stop-color="#76E1FF"/><stop offset="100%" stop-color="#637BFF" stop-opacity="0"/></linearGradient><linearGradient id="v" x1="39.225%" x2="46.318%" y1="6.036%" y2="81.515%"><stop offset="0%" stop-color="#76E1FF"/><stop offset="100%" stop-color="#637BFF" stop-opacity="0"/></linearGradient><linearGradient id="w" x1="45.31%" x2="48.397%" y1="6.036%" y2="81.515%"><stop offset="0%" stop-color="#76E1FF"/><stop offset="100%" stop-color="#637BFF" stop-opacity="0"/></linearGradient><linearGradient id="x" x1="0%" x2="100%" y1="50%" y2="50%"><stop offset="0%" stop-color="#5B79A2"/><stop offset="100%" stop-color="#2E4469"/></linearGradient><linearGradient id="y" x1="85.355%" x2="14.645%" y1="72.176%" y2="27.824%"><stop offset="0%" stop-color="#2F4568"/><stop offset="100%" stop-color="#18222F"/></linearGradient><linearGradient id="z" x1="50%" x2="50%" y1="-48.381%" y2="62.836%"><stop offset="0%" stop-color="#76E1FF"/><stop offset="100%" stop-color="#637BFF" stop-opacity="0"/></linearGradient><linearGradient id="B" x1="45.437%" x2="3.279%" y1="168.048%" y2="5.569%"><stop offset="0%" stop-color="#C4D6EB" stop-opacity=".676"/><stop offset="100%" stop-color="#91ACD2" stop-opacity=".3"/></linearGradient><linearGradient id="C" x1="39.227%" x2="18.472%" y1="81.515%" y2="6.036%"><stop offset="0%" stop-color="#76E1FF"/><stop offset="100%" stop-color="#637BFF" stop-opacity="0"/></linearGradient><linearGradient id="D" x1="0%" x2="100%" y1="50%" y2="50%"><stop offset="0%" stop-color="#5B79A2"/><stop offset="100%" stop-color="#2E4469"/></linearGradient><linearGradient id="I" x1="30.414%" x2="50%" y1="33.066%" y2="66.934%"><stop offset="0%" stop-color="#5B79A2"/><stop offset="100%" stop-color="#2E4469"/></linearGradient><linearGradient id="M" x1="46.013%" x2="55.511%" y1="2.256%" y2="100%"><stop offset="0%" stop-color="#374F73"/><stop offset="100%" stop-color="#253652"/></linearGradient><linearGradient id="N" x1="50%" x2="50%" y1="149.484%" y2="0%"><stop offset="0%" stop-color="#5B79A2"/><stop offset="100%" stop-color="#2E4469"/></linearGradient><linearGradient id="Q" x1="98.741%" x2="1.259%" y1="48.741%" y2="48.741%"><stop offset="0%" stop-color="#21C8F6"/><stop offset="100%" stop-color="#637BFF"/></linearGradient><linearGradient id="R" x1="34.594%" x2="60.398%" y1="41.662%" y2="55.248%"><stop offset="0%" stop-color="#5B79A2"/><stop offset="100%" stop-color="#2E4469"/></linearGradient><linearGradient id="S" x1="31.057%" x2="31.057%" y1="-144.062%" y2="100%"><stop offset="0%" stop-color="#6F90BC"/><stop offset="100%" stop-color="#2E4469"/></linearGradient><linearGradient id="U" x1="75.874%" x2="92.229%" y1="34.349%" y2="96.248%"><stop offset="0%" stop-color="#5B79A2"/><stop offset="100%" stop-color="#2E4469"/></linearGradient><linearGradient id="X" x1="38.15%" x2="41.988%" y1="78.776%" y2="102.32%"><stop offset="0%" stop-color="#55739C"/><stop offset="100%" stop-color="#4179D5"/></linearGradient><linearGradient id="Y" x1="1.259%" x2="98.741%" y1="48.741%" y2="48.741%"><stop offset="0%" stop-color="#21C8F6"/><stop offset="100%" stop-color="#637BFF"/></linearGradient><linearGradient id="ac" x1="50%" x2="50%" y1="108%" y2="-31.193%"><stop offset="0%" stop-color="#25C2F2" stop-opacity=".22"/><stop offset="100%" stop-color="#293F64"/></linearGradient><linearGradient id="ai" x1="154.902%" x2="24.379%" y1="138.176%" y2="14.189%"><stop offset="0%" stop-color="#76E1FF"/><stop offset="100%" stop-color="#637BFF" stop-opacity="0"/></linearGradient><linearGradient id="aj" x1="13.955%" x2="105.637%" y1=".616%" y2="98.781%"><stop offset="0%" stop-color="#587CB9"/><stop offset="100%" stop-color="#2E4469" stop-opacity="0"/></linearGradient><linearGradient id="ao" x1="98.741%" x2="1.259%" y1="48.741%" y2="48.741%"><stop offset="0%" stop-color="#21C8F6"/><stop offset="100%" stop-color="#637BFF"/></linearGradient><linearGradient id="ap" x1="98.741%" x2="1.259%" y1="48.741%" y2="48.741%"><stop offset="0%" stop-color="#21C8F6"/><stop offset="100%" stop-color="#637BFF"/></linearGradient><linearGradient id="ax" x1="50%" x2="50%" y1="100%" y2="50%"><stop offset="0%" stop-color="#5B79A2"/><stop offset="100%" stop-color="#2E4469"/><stop offset="100%" stop-color="#2E4469"/><stop offset="100%" stop-color="#2E4469"/></linearGradient><linearGradient id="aB" x1="46.086%" x2="55.411%" y1="2.256%" y2="100%"><stop offset="0%" stop-color="#374F73"/><stop offset="100%" stop-color="#253652"/></linearGradient><linearGradient id="aC" x1="50%" x2="50%" y1="149.484%" y2="0%"><stop offset="0%" stop-color="#5B79A2"/><stop offset="100%" stop-color="#2E4469"/></linearGradient><linearGradient id="aE" x1="50%" x2="50%" y1="100%" y2="69.152%"><stop offset="0%" stop-color="#5B79A2"/><stop offset="100%" stop-color="#2E4469"/></linearGradient><linearGradient id="aF" x1="50%" x2="28.893%" y1="66.186%" y2="13.232%"><stop offset="0%" stop-color="#267195"/><stop offset="100%" stop-color="#00C3FF"/></linearGradient><linearGradient id="aG" x1="10.01%" x2="94.296%" y1="35.997%" y2="65.589%"><stop offset="0%" stop-color="#5B79A2"/><stop offset="100%" stop-color="#2E4469"/></linearGradient><linearGradient id="aO" x1="40.357%" x2="16.862%" y1="51.698%" y2="41.52%"><stop offset="0%" stop-color="#21C8F6" stop-opacity=".299"/><stop offset="100%" stop-color="#637BFF"/></linearGradient><radialGradient id="b" cx="-13.828%" cy="-9.043%" r="124.225%" fx="-13.828%" fy="-9.043%" gradientTransform="scale(.70949 1) rotate(53.031 -.167 -.147)"><stop offset="0%" stop-color="#FAC446"/><stop offset="100%" stop-color="#233452" stop-opacity="0"/></radialGradient><radialGradient id="e" cx="50%" cy="0%" r="69.799%" fx="50%" fy="0%" gradientTransform="matrix(0 1 -.6331 0 .5 -.5)"><stop offset="0%" stop-color="#283F62"/><stop offset="100%" stop-color="#101A2A"/></radialGradient><radialGradient id="h" cx="50%" cy="0%" r="70.138%" fx="50%" fy="0%" gradientTransform="matrix(0 .99516 -1 0 .5 -.498)"><stop offset="0%" stop-color="#283F62"/><stop offset="100%" stop-color="#101A2A"/></radialGradient><radialGradient id="j" cx="-6.685%" cy="70.19%" r="96.221%" fx="-6.685%" fy="70.19%" gradientTransform="matrix(.13059 -.84572 .99144 .1114 -.754 .567)"><stop offset="0%" stop-color="#25C2F2" stop-opacity=".626"/><stop offset="100%" stop-color="#293F64"/></radialGradient><radialGradient id="k" cx="50%" cy="0%" r="88.828%" fx="50%" fy="0%" gradientTransform="matrix(0 .78577 -1 0 .5 -.393)"><stop offset="0%" stop-color="#283F62"/><stop offset="100%" stop-color="#101A2A"/></radialGradient><radialGradient id="m" cx="-6.685%" cy="70.19%" r="96.219%" fx="-6.685%" fy="70.19%" gradientTransform="scale(1 .85305) rotate(-82.496 .002 .762)"><stop offset="0%" stop-color="#25C2F2" stop-opacity=".626"/><stop offset="100%" stop-color="#293F64"/></radialGradient><radialGradient id="n" cx="50%" cy="0%" r="88.825%" fx="50%" fy="0%" gradientTransform="matrix(0 .7858 -1 0 .5 -.393)"><stop offset="0%" stop-color="#283F62"/><stop offset="100%" stop-color="#101A2A"/></radialGradient><radialGradient id="q" cx="-6.685%" cy="70.19%" r="100.398%" fx="-6.685%" fy="70.19%" gradientTransform="scale(1 .81696) rotate(-82.81 .022 .78)"><stop offset="0%" stop-color="#25C2F2" stop-opacity=".626"/><stop offset="100%" stop-color="#293F64"/></radialGradient><radialGradient id="A" cx="37.435%" cy="76.012%" r="68.117%" fx="37.435%" fy="76.012%" gradientTransform="scale(.79198 1) rotate(-69.32 .424 .689)"><stop offset="0%" stop-color="#25C2F2" stop-opacity=".626"/><stop offset="100%" stop-color="#293F64"/></radialGradient><radialGradient id="J" cx="7.73%" cy="3.866%" r="112.902%" fx="7.73%" fy="3.866%" gradientTransform="matrix(.19465 .9424 -.54845 .33448 .083 -.047)"><stop offset="0%" stop-color="#25C2F2" stop-opacity=".626"/><stop offset="100%" stop-color="#293F64"/></radialGradient><radialGradient id="K" cx="52.436%" cy="42.955%" r="36.114%" fx="52.436%" fy="42.955%" gradientTransform="matrix(-1 0 0 -.21135 1.049 .52)"><stop offset="0%" stop-color="#172743"/><stop offset="100%" stop-opacity="0"/></radialGradient><radialGradient id="T" cx="7.73%" cy="3.866%" r="141.293%" fx="7.73%" fy="3.866%" gradientTransform="scale(.2364 1) rotate(48.854 .202 .314)"><stop offset="0%" stop-color="#25C2F2" stop-opacity=".626"/><stop offset="100%" stop-color="#293F64"/></radialGradient><radialGradient id="W" cx="50%" cy="50%" r="68.353%" fx="50%" fy="50%" gradientTransform="matrix(0 1 -.99995 0 1 0)"><stop offset="0%" stop-color="#21C8F6"/><stop offset="100%" stop-color="#4BDEFF"/></radialGradient><radialGradient id="Z" cx="43.496%" cy="117.006%" r="68.68%" fx="43.496%" fy="117.006%" gradientTransform="matrix(.0947 -.97563 .73994 .38556 -.472 1.143)"><stop offset="0%" stop-color="#25C2F2"/><stop offset="100%" stop-color="#293F64"/></radialGradient><radialGradient id="ag" cx="50%" cy="50%" r="152.585%" fx="50%" fy="50%" gradientTransform="matrix(.44828 0 0 1 .276 0)"><stop offset="0%" stop-color="#21C8F6"/><stop offset="100%" stop-color="#4BDEFF"/></radialGradient><radialGradient id="av" cx="42.558%" cy="20.967%" r="61.194%" fx="42.558%" fy="20.967%" gradientTransform="scale(.78313 1) rotate(85.619 .485 .273)"><stop offset="0%" stop-color="#5B79A2"/><stop offset="100%" stop-color="#2E4469"/><stop offset="100%" stop-color="#2E4469"/><stop offset="100%" stop-color="#253858"/></radialGradient><radialGradient id="aw" cx="7.73%" cy="3.866%" r="110.038%" fx="7.73%" fy="3.866%" gradientTransform="matrix(.19972 .96693 -.75723 .25503 .091 -.046)"><stop offset="0%" stop-color="#25C2F2" stop-opacity=".626"/><stop offset="100%" stop-color="#293F64"/></radialGradient><radialGradient id="ay" cx="7.73%" cy="3.866%" r="132.448%" fx="7.73%" fy="3.866%" gradientTransform="scale(.27862 1) rotate(53.449 .177 .237)"><stop offset="0%" stop-color="#25C2F2" stop-opacity=".626"/><stop offset="100%" stop-color="#293F64"/></radialGradient><radialGradient id="az" cx="52.436%" cy="42.955%" r="36.733%" fx="52.436%" fy="42.955%" gradientTransform="matrix(-.98314 0 0 -.21136 1.04 .52)"><stop offset="0%" stop-color="#172743"/><stop offset="100%" stop-opacity="0"/></radialGradient><radialGradient id="aH" cx="7.73%" cy="3.866%" r="107.149%" fx="7.73%" fy="3.866%" gradientTransform="matrix(.27667 .8972 -.56208 .44163 .078 -.048)"><stop offset="0%" stop-color="#22CBFF" stop-opacity=".194"/><stop offset="100%" stop-color="#293F64" stop-opacity=".378"/></radialGradient><radialGradient id="aI" cx="22.124%" cy="112.647%" r="117.192%" fx="22.124%" fy="112.647%" gradientTransform="scale(.62649 1) rotate(-60.783 .287 1.014)"><stop offset="0%" stop-color="#25C2F2" stop-opacity=".626"/><stop offset="100%" stop-color="#293F64"/></radialGradient><radialGradient id="aN" cx="50%" cy="50%" r="68.421%" fx="50%" fy="50%" gradientTransform="matrix(.99969 0 0 1 0 0)"><stop offset="0%" stop-color="#21C8F6"/><stop offset="100%" stop-color="#4BDEFF"/></radialGradient><radialGradient id="aR" cx="50%" cy="50%" r="1321.789%" fx="50%" fy="50%" gradientTransform="matrix(.05175 0 0 1 .474 0)"><stop offset="0%" stop-color="#21C8F6"/><stop offset="100%" stop-color="#4BDEFF"/></radialGradient><radialGradient id="aU" cx="50%" cy="50%" r="696.262%" fx="50%" fy="50%" gradientTransform="matrix(.09824 0 0 1 .45 0)"><stop offset="0%" stop-color="#21C8F6"/><stop offset="100%" stop-color="#4BDEFF"/></radialGradient><radialGradient id="aX" cx="50%" cy="50%" r="267.793%" fx="50%" fy="50%" gradientTransform="matrix(.25542 0 0 1 .372 0)"><stop offset="0%" stop-color="#21C8F6"/><stop offset="100%" stop-color="#4BDEFF"/></radialGradient><filter id="L" width="100%" height="100%" x="0%" y="0%" filterUnits="objectBoundingBox"><feGaussianBlur in="SourceGraphic"/></filter><filter id="O" width="147.5%" height="1033.6%" x="-23.7%" y="-423.2%" filterUnits="objectBoundingBox"><feOffset dy="5" in="SourceAlpha" result="shadowOffsetOuter1"/><feGaussianBlur in="shadowOffsetOuter1" result="shadowBlurOuter1" stdDeviation="17"/><feColorMatrix in="shadowBlurOuter1" values="0 0 0 0 0.0115609217 0 0 0 0 0.467910214 0 0 0 0 1 0 0 0 1 0"/></filter><filter id="V" width="180%" height="180%" x="-40%" y="-40%" filterUnits="objectBoundingBox"><feGaussianBlur in="SourceGraphic" stdDeviation="12.344"/></filter><filter id="ae" width="427.6%" height="830.8%" x="-163.8%" y="-303.8%" filterUnits="objectBoundingBox"><feOffset dy="8" in="SourceAlpha" result="shadowOffsetOuter1"/><feGaussianBlur in="shadowOffsetOuter1" result="shadowBlurOuter1" stdDeviation="14.5"/><feColorMatrix in="shadowBlurOuter1" values="0 0 0 0 0.137254902 0 0 0 0 0.788235294 0 0 0 0 0.968627451 0 0 0 1 0"/></filter><filter id="al" width="157.4%" height="365.7%" x="-28.7%" y="-101.6%" filterUnits="objectBoundingBox"><feOffset dy="12" in="SourceAlpha" result="shadowOffsetOuter1"/><feGaussianBlur in="shadowOffsetOuter1" result="shadowBlurOuter1" stdDeviation="15"/><feColorMatrix in="shadowBlurOuter1" values="0 0 0 0 0.137254902 0 0 0 0 0.788235294 0 0 0 0 0.968627451 0 0 0 1 0"/></filter><filter id="at" width="127.4%" height="251.4%" x="-13.7%" y="-75.7%" filterUnits="objectBoundingBox"><feGaussianBlur in="SourceGraphic" stdDeviation="11.612"/></filter><filter id="au" width="138.5%" height="398.7%" x="-19.2%" y="-149.3%" filterUnits="objectBoundingBox"><feGaussianBlur in="SourceGraphic" stdDeviation="11.612"/></filter><filter id="aA" width="100%" height="100%" x="0%" y="0%" filterUnits="objectBoundingBox"><feGaussianBlur in="SourceGraphic"/></filter><filter id="aD" width="100%" height="100%" x="0%" y="0%" filterUnits="objectBoundingBox"><feGaussianBlur in="SourceGraphic"/></filter><filter id="aL" width="545.2%" height="545.3%" x="-222.6%" y="-191.4%" filterUnits="objectBoundingBox"><feOffset dy="12" in="SourceAlpha" result="shadowOffsetOuter1"/><feGaussianBlur in="shadowOffsetOuter1" result="shadowBlurOuter1" stdDeviation="26.5"/><feColorMatrix in="shadowBlurOuter1" values="0 0 0 0 0.137254902 0 0 0 0 0.788235294 0 0 0 0 0.968627451 0 0 0 1 0"/></filter><filter id="aP" width="220.1%" height="2420.1%" x="-60%" y="-997.2%" filterUnits="objectBoundingBox"><feOffset dy="12" in="SourceAlpha" result="shadowOffsetOuter1"/><feGaussianBlur in="shadowOffsetOuter1" result="shadowBlurOuter1" stdDeviation="26.5"/><feColorMatrix in="shadowBlurOuter1" values="0 0 0 0 0.137254902 0 0 0 0 0.788235294 0 0 0 0 0.968627451 0 0 0 1 0"/></filter><filter id="aS" width="263.9%" height="1768.8%" x="-82%" y="-834.4%" filterUnits="objectBoundingBox"><feOffset in="SourceAlpha" result="shadowOffsetOuter1"/><feGaussianBlur in="shadowOffsetOuter1" result="shadowBlurOuter1" stdDeviation="20.5"/><feColorMatrix in="shadowBlurOuter1" values="0 0 0 0 0.180392157 0 0 0 0 0.811764706 0 0 0 0 0.976470588 0 0 0 1 0"/></filter><filter id="aV" width="526.3%" height="1768.8%" x="-213.1%" y="-834.4%" filterUnits="objectBoundingBox"><feOffset in="SourceAlpha" result="shadowOffsetOuter1"/><feGaussianBlur in="shadowOffsetOuter1" result="shadowBlurOuter1" stdDeviation="20.5"/><feColorMatrix in="shadowBlurOuter1" values="0 0 0 0 0.180392157 0 0 0 0 0.811764706 0 0 0 0 0.976470588 0 0 0 1 0"/></filter><path id="E" d="M146.61 132.979s-4.014-6.106-8.046-7.8c-1.212-.509-2.425-.62-3.532-.048-1.483.769-1.818 2.604-1.574 4.773.544 4.838 3.97 11.335 3.97 11.335a22.569 22.569 0 012.138-1.742c6.132-4.416 14.19-5.945 17.108-6.375.71-.103 1.115-.143 1.115-.143s-.393-1.219-1.249-2.755a16.024 16.024 0 00-1.938-2.785c-.96-1.095-2.152-2.096-3.6-2.72-.435-.188-.828-.273-1.182-.274-3.54 0-3.21 8.534-3.21 8.534"/><path id="G" d="M207.39 127.406c-1.485.52-2.74 1.437-3.77 2.46a15.776 15.776 0 00-1.797 2.166c-1.168 1.686-1.745 3.139-1.745 3.139s.402.068 1.104.221c2.693.591 9.794 2.454 15.468 6.635 1.14.84 2.223 1.775 3.203 2.81 0 0 4.069-6.609 4.77-11.443.235-1.633.087-3.063-.732-3.967-1.48-1.636-3.91-.955-5.562-.04-3.656 2.026-7.098 6.567-7.098 6.567s.915-8.743-2.803-8.743a3.13 3.13 0 00-1.037.195"/><path id="P" d="M132.057 229.348H346.07a5.73 5.73 0 110 11.46H132.057a5.73 5.73 0 010-11.46z"/><path id="aa" d="M28.307 0h149.849c15.633 0 28.307 12.674 28.307 28.307v120.17a28.308 28.308 0 01-18.027 26.375c-17.851 6.957-45.07 10.436-81.658 10.436-38.793 0-68.342-3.91-88.646-11.732A28.308 28.308 0 010 147.14V28.307C0 12.674 12.674 0 28.307 0z"/><path id="ab" d="M28.307 0h149.849c15.633 0 28.307 12.674 28.307 28.307v120.17a28.308 28.308 0 01-18.027 26.375c-17.851 6.957-45.07 10.436-81.658 10.436-38.793 0-68.342-3.91-88.646-11.732A28.308 28.308 0 010 147.14V28.307C0 12.674 12.674 0 28.307 0z"/><path id="af" d="M141.235 166.282c-5.18-.007-10.106-2.287-13.52-6.256-1.46-1.697-1.29-4.27.382-5.746a3.983 3.983 0 015.67.403c1.884 2.19 4.602 3.45 7.457 3.453a9.8 9.8 0 007.448-3.434 3.979 3.979 0 015.668-.388 4.114 4.114 0 01.398 5.747c-3.403 3.96-8.325 6.227-13.503 6.22z"/><path id="ah" d="M28.307 0h149.849c15.633 0 28.307 12.674 28.307 28.307v120.17a28.308 28.308 0 01-18.027 26.375c-17.851 6.957-45.07 10.436-81.658 10.436-38.793 0-68.342-3.91-88.646-11.732A28.308 28.308 0 010 147.14V28.307C0 12.674 12.674 0 28.307 0z"/><path id="am" d="M87.574 97.581h139.17c10.6 0 19.194 8.594 19.194 19.195 0 10.6-8.593 19.194-19.194 19.194H87.574c-10.6 0-19.194-8.594-19.194-19.194 0-10.601 8.594-19.195 19.194-19.195z"/><path id="aJ" d="M106.554 135.304c58.848 0 106.554-1.258 106.554-48.95S165.402 0 106.554 0 0 38.662 0 86.354s47.706 48.95 106.554 48.95z"/><path id="aQ" d="M3.969 0h135.058a3.685 3.685 0 010 7.37H3.969a3.685 3.685 0 010-7.37z"/><path id="aT" d="M3.969 0h67.655a3.685 3.685 0 010 7.37H3.969a3.685 3.685 0 010-7.37z"/><path id="aW" d="M3.685 27.015h21.486a3.685 3.685 0 010 7.371H3.685a3.685 3.685 0 010-7.371z"/><ellipse id="an" cx="59.185" cy="58.923" rx="59.185" ry="58.923"/><ellipse id="ar" cx="59.185" cy="58.923" rx="59.185" ry="58.923"/><ellipse id="aM" cx="64.715" cy="60.632" rx="19.206" ry="19.2"/></defs><g style="mix-blend-mode:luminosity" fill="none" fill-rule="evenodd" opacity=".1"><path fill="url(#a)" fill-rule="nonzero" d="M290.486 210.153l-6.937 5.85a106.417 106.417 0 00-111.697 4.243v-10.102c-22.989 23.028-80.456 69.07-68.961 115.112 5.84 23.4 23.553 28.955 39.567 25.742a250.973 250.973 0 0019.757 35.372h137.922a303.066 303.066 0 0019.15-35.492c16.171 3.478 34.263-1.925 40.18-25.622 11.484-46.042-46.002-92.084-68.98-115.103z" transform="rotate(-3 6569.891 -1472.735)"/><path fill="url(#b)" fill-rule="nonzero" d="M290.486 210.153l-6.937 5.85a106.417 106.417 0 00-111.697 4.243v-10.102c-22.989 23.028-80.456 69.07-68.961 115.112 5.84 23.4 23.553 28.955 39.567 25.742a250.973 250.973 0 0019.757 35.372h137.922a303.066 303.066 0 0019.15-35.492c16.171 3.478 34.263-1.925 40.18-25.622 11.484-46.042-46.002-92.084-68.98-115.103z" transform="rotate(-3 6569.891 -1472.735)"/><path fill="url(#c)" d="M290.486 210.153l-6.937 5.85a106.417 106.417 0 00-111.697 4.243v-10.102c-22.989 23.028-80.456 69.07-68.961 115.112 5.84 23.4 23.553 28.955 39.567 25.742a250.973 250.973 0 0019.757 35.372h137.922a303.066 303.066 0 0019.15-35.492c16.171 3.478 34.263-1.925 40.18-25.622 11.484-46.042-46.002-92.084-68.98-115.103z" opacity=".705" transform="rotate(-3 6569.891 -1472.735)"/><path fill="url(#d)" d="M127.491 230.586l21.765-14.887 122.973 22.927 56.261 34.925-39.599 43.955-116.783 4.012-59.64-75.368z" transform="scale(-1 1) rotate(3 -6349.412 -9892.488)"/><path fill="url(#e)" d="M320.903 202.481a85.581 85.581 0 01-10.05 12.292c-4.245 5.328-15.728 19.655-27.933 34.24l-.863 1.03-.432.515-1.298 1.545a1442.76 1442.76 0 01-2.601 3.079c-9.465 11.141-9.197 21.08 1.149 24.534 10.905 3.641 22.208-9.593 22.208-9.593l27.407-23.973s-15.941 70.016-73.39 70.016c-23.893 0-53.837-15.928-68.96-34.53-16.277-20.07-20.203-45.73-21.136-56.588a87.703 87.703 0 01-16.083-15.09c22.084 13.435 50.068 21.464 80.51 21.464 35.693 0 68.007-11.038 91.398-28.884z" opacity=".204" transform="rotate(-3 6569.891 -1472.735)"/><path fill="url(#f)" fill-rule="nonzero" d="M259.589 340.328c0 25.429 18.292 46.042 40.87 46.042 22.576 0 40.869-20.613 40.869-46.042 0-25.429-18.298-46.042-40.87-46.042s-40.87 20.618-40.87 46.042z" transform="rotate(-3 6569.891 -1472.735)"/><path fill="url(#g)" d="M259.589 340.328c0 25.429 18.292 46.042 40.87 46.042 22.576 0 40.869-20.613 40.869-46.042 0-25.429-18.298-46.042-40.87-46.042s-40.87 20.618-40.87 46.042z" opacity=".705" transform="rotate(-3 6569.891 -1472.735)"/><path fill="url(#h)" d="M283.214 353.12c-.025 7.272 4.316 13.843 10.995 16.644a17.818 17.818 0 0019.507-3.855 18.03 18.03 0 003.904-19.588c-2.764-6.722-9.287-11.107-16.525-11.107a17.802 17.802 0 00-12.631 5.231 17.977 17.977 0 00-5.25 12.674z" opacity=".3" transform="rotate(-3 6569.891 -1472.735)"/><path fill="url(#f)" fill-rule="nonzero" d="M121.025 340.328c0 25.429 18.292 46.042 40.87 46.042 22.576 0 40.869-20.613 40.869-46.042 0-25.429-18.298-46.042-40.87-46.042s-40.869 20.618-40.869 46.042z" transform="rotate(-3 6569.891 -1472.735)"/><path fill="url(#g)" d="M121.025 340.328c0 25.429 18.292 46.042 40.87 46.042 22.576 0 40.869-20.613 40.869-46.042 0-25.429-18.298-46.042-40.87-46.042s-40.869 20.618-40.869 46.042z" opacity=".705" transform="rotate(-3 6569.891 -1472.735)"/><path fill="url(#h)" d="M144.65 353.12c-.025 7.272 4.316 13.843 10.995 16.644a17.818 17.818 0 0019.507-3.855 18.03 18.03 0 003.904-19.588c-2.764-6.722-9.287-11.107-16.525-11.107a17.802 17.802 0 00-12.631 5.231 17.977 17.977 0 00-5.25 12.674z" opacity=".3" transform="rotate(-3 6569.891 -1472.735)"/><g transform="rotate(-14 1744.336 -157.994)"><path fill="url(#i)" fill-rule="nonzero" d="M209.545 109.35c0 60.392 43.138 109.354 103.444 109.354 60.306 0 70.54-44.026 80.455-103.596C404.94 46.042 379.04 0 318.734 0c-60.202-.1-109.086 48.856-109.19 109.35z"/><path fill="url(#i)" fill-rule="nonzero" d="M209.545 109.35c0 60.392 43.138 109.354 103.444 109.354 60.306 0 70.54-44.026 80.455-103.596C404.94 46.042 379.04 0 318.734 0c-60.202-.1-109.086 48.856-109.19 109.35z"/><path fill="url(#j)" d="M209.545 109.35c0 60.392 43.138 109.354 103.444 109.354 60.306 0 70.54-44.026 80.455-103.596C404.94 46.042 379.04 0 318.734 0c-60.202-.1-109.086 48.856-109.19 109.35z" opacity=".705"/><path fill="url(#k)" d="M312.989 184.169c20.078 0 25.708-6.432 29.758-13.022 8.138-13.23 12.528-36.744 16.688-61.72 4.711-28.31 1.666-51.339-8.354-63.183-9.91-11.713-26.794-11.713-32.343-11.713-41.169-.016-74.586 33.45-74.71 74.819-.384 19.833 6.731 39.075 19.91 53.845 12.632 13.69 30.474 21.32 49.05 20.974z"/><path fill="url(#l)" fill-rule="nonzero" d="M186.56 109.35c0 60.392-43.138 109.35-103.444 109.35-60.305 0-70.54-44.022-80.455-103.592C-8.833 46.042 17.066 0 77.367 0c28.91-.05 56.656 11.443 77.134 31.95 20.478 20.507 32.01 48.349 32.06 77.4z"/><path fill="url(#m)" d="M186.56 109.35c0 60.392-43.138 109.35-103.444 109.35-60.305 0-70.54-44.022-80.455-103.592C-8.833 46.042 17.066 0 77.367 0c28.91-.05 56.656 11.443 77.134 31.95 20.478 20.507 32.01 48.349 32.06 77.4z" opacity=".705"/><path fill="url(#n)" d="M83.116 184.169c-20.078 0-25.707-6.432-29.757-13.022-8.139-13.23-12.529-36.744-16.69-61.72-4.71-28.306-1.689-51.324 8.364-63.183 9.9-11.713 26.81-11.713 32.334-11.713 41.17-.016 74.587 33.45 74.71 74.819.383 19.834-6.734 39.076-19.915 53.845-12.63 13.69-30.47 21.319-49.046 20.974z"/><path fill="url(#n)" d="M83.116 184.169c-20.078 0-25.707-6.432-29.757-13.022-8.139-13.23-12.529-36.744-16.69-61.72-4.71-28.306-1.689-51.324 8.364-63.183 9.9-11.713 26.81-11.713 32.334-11.713 41.17-.016 74.587 33.45 74.71 74.819.383 19.834-6.734 39.076-19.915 53.845-12.63 13.69-30.47 21.319-49.046 20.974z"/><path fill="url(#o)" fill-rule="nonzero" d="M244.794 228.297c-10.346-3.454-10.614-13.393-1.15-24.534 14.013-16.53 28.284-34.329 33.129-40.41 15.679-15.908 24.55-37.343 24.721-59.733.005-50.881-46.307-92.108-103.439-92.108-57.132 0-103.444 41.227-103.444 92.084.416 27.797 13.88 53.762 36.312 70.033.933 10.857 4.859 36.517 21.136 56.587 15.123 18.603 45.067 34.53 68.96 34.53 57.448 0 68.962-34.53 68.962-34.53l-22.98-11.512s-11.302 13.234-22.207 9.593z"/><path fill="url(#p)" d="M244.794 228.297c-10.346-3.454-10.614-13.393-1.15-24.534 14.013-16.53 28.284-34.329 33.129-40.41 15.679-15.908 24.55-37.343 24.721-59.733.005-50.881-46.307-92.108-103.439-92.108-57.132 0-103.444 41.227-103.444 92.084.416 27.797 13.88 53.762 36.312 70.033.933 10.857 4.859 36.517 21.136 56.587 15.123 18.603 45.067 34.53 68.96 34.53 57.448 0 68.962-34.53 68.962-34.53l-22.98-11.512s-11.302 13.234-22.207 9.593z" opacity=".705"/><path fill="url(#q)" d="M244.794 228.297c-10.346-3.454-10.614-13.393-1.15-24.534 14.013-16.53 28.284-34.329 33.129-40.41 15.679-15.908 24.55-37.343 24.721-59.733.005-50.881-46.307-92.108-103.439-92.108-57.132 0-103.444 41.227-103.444 92.084.416 27.797 13.88 53.762 36.312 70.033.933 10.857 4.859 36.517 21.136 56.587 15.123 18.603 45.067 34.53 68.96 34.53 57.448 0 68.962-34.53 68.962-34.53l-22.98-11.512s-11.302 13.234-22.207 9.593z" opacity=".705"/><path fill="url(#r)" d="M271.78 46.507l43.094 5.072c-7.867 22.558-10.464 38.517-7.791 47.875 2.672 9.358.104 7.932-7.706-4.279L271.78 46.507z" transform="rotate(-180 293.327 76.026)"/><ellipse cx="150.992" cy="132.599" fill="#10192A" fill-rule="nonzero" rx="8.622" ry="8.635"/><ellipse cx="244.491" cy="135.232" fill="#10192A" fill-rule="nonzero" rx="8.622" ry="8.635"/></g><g><g transform="rotate(-13 2039.29 -471.491)"><circle cx="203.291" cy="73.486" r="50.389" fill="url(#s)" opacity=".398" transform="rotate(45 203.291 73.486)"/><path fill="url(#t)" d="M205.599 87.298c16.645 0 31.4-8.13 40.549-20.654.095 1.26.143 2.533.143 3.817 0 27.897-22.505 50.511-50.267 50.511-27.762 0-50.267-22.614-50.267-50.511 0-11.17 3.609-21.494 9.718-29.857 1.94 26.113 23.64 46.694 50.124 46.694z" opacity=".309" transform="rotate(45 196.024 80.788)"/><circle cx="71.271" cy="71.251" r="50.389" fill="url(#s)" opacity=".398" transform="rotate(45 71.27 71.251)"/><path fill="url(#t)" d="M73.578 85.064c16.645 0 31.401-8.13 40.55-20.654.095 1.26.142 2.532.142 3.817 0 27.896-22.505 50.51-50.266 50.51-27.762 0-50.267-22.614-50.267-50.51 0-11.17 3.608-21.494 9.717-29.858 1.94 26.114 23.64 46.695 50.124 46.695z" opacity=".309" transform="rotate(45 64.004 78.554)"/><path fill="#152238" stroke="#152238" stroke-width="4.8" d="M203.213 127.69c-21.335.032-40.723-12.674-49.606-32.506l-.04-.053-.126-.22c-2.316-3.992-4.647-12.116-6.521-18.65a64.243 64.243 0 00-3.103-9.486c-1.775-2.932-6.248-3.192-6.287-3.194-.039-.002-4.51.26-6.287 3.194a64.218 64.218 0 00-3.103 9.484c-1.874 6.531-4.206 14.658-6.522 18.652l-.127.22-.04.053c-8.274 18.383-25.626 30.753-45.357 32.335-19.731 1.581-38.756-7.873-49.73-24.713l-.018.016a37.863 37.863 0 01-4.214-7.746A55.16 55.16 0 0118.945 86c-.928-3.183-1.723-6.329-2.434-9.102a39.316 39.316 0 00-3.168-9.891c-1.904-2.287-6.929-2.534-9-2.534-.646 0-1.062.022-1.107.027V50.355a38.765 38.765 0 007.11-1.084 22.34 22.34 0 0011.489-6.217 119.178 119.178 0 0116.054-13.986l.066-.053c1.136-.919 2.207-1.784 3.407-2.604l-.08-.055c8.986-6.157 19.58-9.4 30.397-9.307a53.862 53.862 0 0121.33 4.366 54.118 54.118 0 0117.416 11.896c3.904 3.723 7.436 7.791 10.84 11.715l.01.013c.748.861 1.52 1.762 2.284 2.626 1.643 2.328 4.239 3.758 7.044 3.88a19.016 19.016 0 003.064-.34 18.684 18.684 0 017.717 0c1.011.196 2.036.31 3.064.34 1.806 0 4.053-.461 7.044-3.88.773-.881 1.553-1.784 2.31-2.655l.01-.013c3.402-3.923 6.92-7.981 10.825-11.675C183.05 14.6 211.8 11.692 233.446 26.36l.075.051a53.93 53.93 0 013.551 2.657 120.21 120.21 0 0115.86 13.986 21.15 21.15 0 0011.387 6.217c2.298.578 4.644.94 7.007 1.084V64.5c-.015 0-.431-.027-1.078-.027-2.008 0-6.894.247-8.788 2.534a36.284 36.284 0 00-2.954 9.404c-.72 2.914-1.534 6.219-2.515 9.59a55.332 55.332 0 01-3.132 9.07 37.212 37.212 0 01-4.185 7.748v-.015c-10.108 15.571-27.183 24.918-45.461 24.886zm0-103.114c-18.863-.03-35.92 11.46-43.338 29.191-7.454 17.929-3.46 38.693 10.081 52.399 11.08 11.272 26.903 16.2 42.247 13.155 15.345-3.044 28.217-13.664 34.369-28.356 7.454-17.929 3.458-38.693-10.084-52.398-8.838-8.988-20.802-14.022-33.267-14l-.008.01zm-131.368 0c-18.866-.034-35.928 11.456-43.348 29.191-7.456 17.927-3.464 38.691 10.075 52.399 11.079 11.273 26.902 16.201 42.247 13.157 15.344-3.044 28.217-13.665 34.368-28.358 7.451-17.925 3.459-38.683-10.075-52.39-8.838-8.987-20.802-14.022-33.267-13.999h0z"/></g></g><g><g fill-rule="nonzero" stroke-width="1.774"><path stroke="url(#u)" d="M197.184 8.669c0-.905-.338-1.707-1.012-2.402l-5.06-5.222C190.436.349 189.66 0 188.783 0c-.877 0-1.654.35-2.328 1.045l-47.154 48.663c-.676.696-1.013 1.497-1.013 2.402 0 .904.338 1.705 1.013 2.401l47.154 48.663c.674.697 1.45 1.044 2.327 1.044.879 0 1.654-.348 2.328-1.044l5.06-5.219c.675-.696 1.013-1.497 1.013-2.403 0-.904-.338-1.705-1.013-2.4L156.403 52.11l39.769-41.04c.675-.695 1.012-1.497 1.012-2.401z" transform="rotate(168 472.518 141.97)"/><path stroke="url(#v)" d="M58.894 8.669c0-.905-.337-1.707-1.012-2.402l-5.06-5.222C52.148.349 51.372 0 50.494 0c-.876 0-1.653.35-2.327 1.045L1.012 49.708C.337 50.404 0 51.205 0 52.11c0 .904.338 1.705 1.012 2.401l47.155 48.663c.674.697 1.449 1.044 2.327 1.044.878 0 1.654-.348 2.328-1.044l5.06-5.219c.674-.696 1.012-1.497 1.012-2.403 0-.904-.338-1.705-1.012-2.4L18.114 52.11l39.768-41.04c.676-.695 1.012-1.497 1.012-2.401z" transform="rotate(-12 1022.704 -2847.696)"/><path stroke="url(#w)" d="M108.56 15.829l-4.546-1.224c-.586-.19-1.161-.134-1.72.168a2.28 2.28 0 00-1.128 1.371l-26.86 90.993a2.056 2.056 0 00.193 1.73c.32.543.797.91 1.433 1.102l4.546 1.224c.586.192 1.16.136 1.72-.168.56-.304.936-.76 1.127-1.37l26.86-90.994a2.055 2.055 0 00-.192-1.731c-.32-.543-.797-.91-1.433-1.101z" opacity=".238" transform="rotate(-4 2264.188 -8827.87)"/></g><g transform="rotate(-12 1284.052 -2511.036)"><path fill="url(#x)" d="M133.463 24.914c20.73-15.538 63.645-14.007 83.194 0 8.974 6.43 15.533 24.996 15.533 24.996s43.286 8.845 58.457 21.235c0 2.156-13.892 2.437-17.512 2.473.44.322.874.644 1.305.966a456.495 456.495 0 0115.701 7.421l1.204.601c10.081 5.06 21.26 11.255 25.652 15.798 0 2.133-10.661 1.817-13.62 1.688.459.477.909.95 1.353 1.42 7.375 5.207 32.309 23.704 44.471 43.975l.799.827-19.763-5.653-.021 1.066c1.415 3.873 5.945 16.498 9.455 29.056l.302 1.09a199.694 199.694 0 012.042 8.03c-1.735 3.592-9.478-.044-13.613-2.32-.18 2.29-.379 4.636-.596 7.029 2.858 12.769 7.791 37.612 8.354 59.169-2.395 1.652-13.574-12.39-13.574-12.39s.448 6.497.87 13.71l.048.82c.031.547.063 1.098.093 1.65l.07 1.239.044.824.043.82c.244 4.63.429 8.971.429 11.5-1.216-.63-5.613-7.385-7.644-10.577a186.157 186.157 0 01-1.657 5.555c-.414 53.236-284.089 40.616-283.695-13.616a268.774 268.774 0 01-1.687-7.363 3835.917 3835.917 0 01-8.74 16.914c-6.124-22.807-1.445-56.302 1.068-70.675a689.921 689.921 0 01-.324-3.9c-.228.393-.474.805-.734 1.228l-.199.318c-.168.266-.34.535-.519.804l-.216.323-.22.322-.224.32c-2.785 3.925-6.4 7.148-8.213 1.05 0-19.824 8.373-47.047 8.373-47.047l-.015.02c-.509.63-13.277 16.365-19.537 11.509 8.131-16.823 30.199-33.643 41.63-41.566a221.45 221.45 0 013.693-4.015c-4.853.814-13.153 1.541-12.585-3.155 10.785-9.187 32.657-18.896 41.191-22.498.638-.486 1.286-.971 1.936-1.456H51.103C63.08 60.407 117.93 49.91 117.93 49.91s6.694-18.37 15.533-24.995z"/><path fill="url(#y)" stroke="url(#z)" stroke-width="2.666" d="M174.28 15.16c15.868 0 31.757 3.785 41.6 10.838 8.648 6.196 14.925 23.994 15.052 24.352.014.04.102.285.244.705l.739.154c1.857.389 39.97 8.308 56.004 19.547l.447.319c-.592.16-1.3.293-2.083.411l-.34.05c-4.333.611-10.577.726-12.821.749h0l-4.01.04 3.236 2.369c.436.319.867.638 1.295.958 3.314 1.523 9.299 4.261 15.903 7.546h0l1.201.6c9.042 4.538 19.002 9.98 23.977 14.297l.224.197-.114.032c-.063.015-.127.03-.193.044l-.202.042c-1.754.345-4.276.438-6.516.444h0-.588a102.55 102.55 0 01-3.9-.093h0l-3.33-.146 2.312 2.402c.455.473.902.943 1.343 1.41 7.226 5.132 30.39 22.281 42.873 41.468l.054.084-17.75-5.077-.033 1.734-.021 1.063c1.369 4.01 5.245 14.808 8.572 26.184h0l.315 1.086c.105.362.208.724.31 1.083h0l.306 1.087.302 1.087c.69 2.51 1.333 5.006 1.898 7.418-.151.148-.34.247-.552.313-.618.192-1.387.152-2.226.01-2.855-.488-6.415-2.26-8.763-3.552a61.137 61.137 0 01-1.81-1.037 605.574 605.574 0 01-.756 9.113c2.826 12.923 7.632 37.076 8.318 58.295-2.975-.516-11.168-12.225-11.168-12.225s-1.247-1.782-2.735-4.13c.222 3.033.362 5.052.362 5.052s.448 6.49.869 13.696h0l.048.818.093 1.647h0l.069 1.238.044.822.044.82c.151 2.873.28 5.635.355 7.916-1.678-2.327-3.859-5.805-5.115-7.778-.444-.698-1.01-1.58-1.617-2.54a189.521 189.521 0 01-2.435 8.409c-.106 5.99-3.602 10.741-9.55 14.789-6.794 4.624-16.772 8.313-28.92 11.151-27.257 6.37-65.356 8.398-103.33 6.575-37.664-1.807-75.208-7.404-101.931-16.35-11.893-3.983-21.63-8.618-28.225-13.898-5.812-4.654-9.176-9.792-9.135-15.472a583.73 583.73 0 01-1.717-7.653c-.264-1.23-.52-2.456-.767-3.68-.6 1.171-1.179 2.296-1.721 3.35-2.061 4.008-4.643 9.02-7.092 13.74-4.792-22.432-.45-53.114 1.919-66.661-.1-1.658-.206-2.955-.31-4.237h0l-.342-4.253-2.14 3.692a46.91 46.91 0 01-1.404 2.274c-1.646 2.334-3.266 4.401-4.741 4.736-.257.058-.49-.012-.698-.218-.393-.388-.708-1.039-.995-1.959.056-19.446 8.15-45.919 8.312-46.448.034-.11.416-1.353 1.097-3.397l.163-.485a250.228 250.228 0 011.792-5.149 54.71 54.71 0 01-1.793 2.903l-.321.483c-1.65 2.452-3.082 4.21-3.247 4.414-.334.412-5.833 7.213-11.288 10.428-1.358.8-2.707 1.38-3.963 1.505-.52.052-1.023.02-1.493-.128 8.458-16.247 29.58-32.263 40.618-39.914 1.406-1.512 2.626-2.841 3.904-4.196a220.348 220.348 0 013.007-3.122c-1.456.394-2.943.682-4.197.893-2.709.454-6.56.916-9.142.269-.683-.172-1.278-.405-1.638-.827a1.164 1.164 0 01-.267-.649c10.908-9.05 32.311-18.5 40.544-21.969h0l1.09-.824 4.185-3.128H54.37c15.238-12.743 63.81-21.897 63.81-21.897s.262-.05.755-.139c.156-.462.247-.714.247-.714s6.464-17.927 15.08-24.385c9.899-7.42 24.97-10.82 40.017-10.82z"/><path fill="url(#A)" d="M133.463 24.914c20.73-15.538 63.645-14.007 83.194 0 8.974 6.43 15.533 24.996 15.533 24.996s43.286 8.845 58.457 21.235c0 2.156-13.892 2.437-17.512 2.473.44.322.874.644 1.305.966a456.495 456.495 0 0115.701 7.421l1.204.601c10.081 5.06 21.26 11.255 25.652 15.798 0 2.133-10.661 1.817-13.62 1.688.459.477.909.95 1.353 1.42 7.375 5.207 32.309 23.704 44.471 43.975l.799.827-19.763-5.653-.021 1.066c1.415 3.873 5.945 16.498 9.455 29.056l.302 1.09a199.694 199.694 0 012.042 8.03c-1.735 3.592-9.478-.044-13.613-2.32-.18 2.29-.379 4.636-.596 7.029 2.858 12.769 7.791 37.612 8.354 59.169-2.395 1.652-13.574-12.39-13.574-12.39s.448 6.497.87 13.71l.048.82c.031.547.063 1.098.093 1.65l.07 1.239.044.824.043.82c.244 4.63.429 8.971.429 11.5-1.216-.63-5.613-7.385-7.644-10.577a186.157 186.157 0 01-1.657 5.555c-.414 53.236-284.089 40.616-283.695-13.616a268.774 268.774 0 01-1.687-7.363 3835.917 3835.917 0 01-8.74 16.914c-6.124-22.807-1.445-56.302 1.068-70.675a689.921 689.921 0 01-.324-3.9c-.228.393-.474.805-.734 1.228l-.199.318c-.168.266-.34.535-.519.804l-.216.323-.22.322-.224.32c-2.785 3.925-6.4 7.148-8.213 1.05 0-19.824 8.373-47.047 8.373-47.047l-.015.02c-.509.63-13.277 16.365-19.537 11.509 8.131-16.823 30.199-33.643 41.63-41.566a221.45 221.45 0 013.693-4.015c-4.853.814-13.153 1.541-12.585-3.155 10.785-9.187 32.657-18.896 41.191-22.498.638-.486 1.286-.971 1.936-1.456H51.103C63.08 60.407 117.93 49.91 117.93 49.91s6.694-18.37 15.533-24.995z" opacity=".383"/><path fill="#24385A" stroke="url(#B)" stroke-width="1.586" d="M207.292 81.1c0 18.827-14.753 34.089-32.952 34.089-18.199 0-32.951-15.262-32.951-34.088s14.752-34.088 32.95-34.088c18.2 0 32.953 15.262 32.953 34.088"/><path fill="#000" fill-opacity=".152" stroke="url(#C)" stroke-width="1.613" d="M207.292 81.1c0 18.827-14.753 34.089-32.952 34.089-18.199 0-32.951-15.262-32.951-34.088s14.752-34.088 32.95-34.088c18.2 0 32.953 15.262 32.953 34.088"/><path fill="#76E2FF" d="M168.477 64.23s-1.345.154-3.273.762c-4.217 1.327-11.228 4.819-13.078 13.587-.09 1.28-.098 2.586.032 3.863.408 4.053 2.461 7.53 5.447 10.251 4 3.642 9.672 5.926 15.314 6.412 8.713.749 17.35-2.794 19.636-12.25.235-.97.42-1.903.579-2.817.511-5.343-.351-9.616-2.279-12.844a14.11 14.11 0 00-2.124-2.736c-3.242-3.252-8.031-4.853-13.739-4.853-2.062 0-4.242.21-6.515.624"/><path fill="url(#D)" d="M170.11 74.065s-2.99.344-4.976 2.592c-1.073 1.214-1.854 2.982-1.715 5.55.092 1.736.937 3.22 2.193 4.366 1.07.973 2.438 1.703 3.9 2.138 3.034.9 6.476.528 8.507-1.586.71-.739 1.25-1.693 1.537-2.882.334-1.387.476-2.632.446-3.738-.056-2.07-.71-3.649-1.81-4.752-1.188-1.193-2.896-1.828-4.931-1.924a11.15 11.15 0 00-.552-.013c-.823 0-1.693.083-2.6.25"/><path fill="#ECECEC" d="M178.865 81.825c0 1.37-1.072 2.478-2.395 2.478-1.324 0-2.396-1.109-2.396-2.478 0-1.368 1.072-2.478 2.396-2.478 1.323 0 2.395 1.11 2.395 2.478"/><path fill="#1C2737" fill-rule="nonzero" d="M208.813 182.514c-5.742 2.406-12.251 1.998-17.861-1.116-2.4-1.33-3.394-4.46-2.22-6.987 1.172-2.528 4.067-3.497 6.466-2.165 3.098 1.719 6.689 1.944 9.855.619 3.165-1.326 5.597-4.074 6.673-7.541.832-2.686 3.566-4.074 6.103-3.1 2.537.973 3.918 3.94 3.086 6.626-1.95 6.278-6.36 11.26-12.102 13.664z"/><mask id="F" fill="#fff"><use xlink:href="#E"/></mask><path d="M146.61 132.979s-4.014-6.106-8.046-7.8c-1.212-.509-2.425-.62-3.532-.048-1.483.769-1.818 2.604-1.574 4.773.544 4.838 3.97 11.335 3.97 11.335a22.569 22.569 0 012.138-1.742c6.132-4.416 14.19-5.945 17.108-6.375.71-.103 1.115-.143 1.115-.143s-.393-1.219-1.249-2.755a16.024 16.024 0 00-1.938-2.785c-.96-1.095-2.152-2.096-3.6-2.72-.435-.188-.828-.273-1.182-.274-3.54 0-3.21 8.534-3.21 8.534" mask="url(#F)"/><mask id="H" fill="#fff"><use xlink:href="#G"/></mask><path d="M207.39 127.406c-1.485.52-2.74 1.437-3.77 2.46a15.776 15.776 0 00-1.797 2.166c-1.168 1.686-1.745 3.139-1.745 3.139s.402.068 1.104.221c2.693.591 9.794 2.454 15.468 6.635 1.14.84 2.223 1.775 3.203 2.81 0 0 4.069-6.609 4.77-11.443.235-1.633.087-3.063-.732-3.967-1.48-1.636-3.91-.955-5.562-.04-3.656 2.026-7.098 6.567-7.098 6.567s.915-8.743-2.803-8.743a3.13 3.13 0 00-1.037.195" mask="url(#H)"/></g></g><g><path fill="#1B283E" d="M398.996 489.572l325.302-112.01c19.695-6.782 41.159 3.687 47.94 23.382a37.721 37.721 0 011.489 5.767l29.898 170.565c6.401 36.519-14.685 72.276-49.74 84.346l-203.319 70.009c-35.055 12.07-73.686-3.125-91.124-35.843L377.99 542.974c-9.798-18.382-2.838-41.226 15.543-51.024a37.734 37.734 0 015.462-2.377z"/><path fill="url(#I)" d="M56.616 73.467H424.19c20.83 0 37.715 16.886 37.715 37.716 0 2.194-.191 4.385-.572 6.546l-28.13 159.626c-6.353 36.054-37.677 62.34-74.287 62.34H121.891c-36.61 0-67.933-26.286-74.287-62.34L19.472 117.73C15.857 97.215 29.556 77.655 50.07 74.04c2.16-.38 4.351-.572 6.546-.572z" transform="rotate(-19 1423.23 -697.328)"/><path fill="url(#I)" d="M56.616 73.467H424.19c20.83 0 37.715 16.886 37.715 37.716 0 2.194-.191 4.385-.572 6.546l-28.13 159.626c-6.353 36.054-37.677 62.34-74.287 62.34H121.891c-36.61 0-67.933-26.286-74.287-62.34L19.472 117.73C15.857 97.215 29.556 77.655 50.07 74.04c2.16-.38 4.351-.572 6.546-.572z" transform="rotate(-19 1423.23 -697.328)"/><path fill="url(#J)" d="M56.616 73.467H424.19c20.83 0 37.715 16.886 37.715 37.716 0 2.194-.191 4.385-.572 6.546l-28.13 159.626c-6.353 36.054-37.677 62.34-74.287 62.34H121.891c-36.61 0-67.933-26.286-74.287-62.34L19.472 117.73C15.857 97.215 29.556 77.655 50.07 74.04c2.16-.38 4.351-.572 6.546-.572z" opacity=".705" transform="rotate(-19 1423.23 -697.328)"/><g transform="rotate(-18 1688.233 -2159.022)"><ellipse cx="28.24" cy="28.236" fill="url(#K)" filter="url(#L)" opacity=".899" rx="24.68" ry="24.682" transform="rotate(-81 28.24 28.236)"/><path stroke="url(#M)" stroke-width="11.11" d="M21.793 14.332C-15.45 16.73 7.337 51.571 2.873 83.335c-3.957 28.149 14.7 45.674 37.157 45.421" transform="scale(-1 1) rotate(-8 87.868 504.297)"/><g transform="scale(-1 1) rotate(82 -20.178 -10.151)"><rect width="17.63" height="18.51" x="6.611" y="6.17" fill="#1B283E" rx="8.815"/><rect width="30.853" height="12.34" fill="url(#N)" rx="6.17"/></g></g><path fill="#1B283E" d="M496.787 579.524l202.355-69.676a5.73 5.73 0 013.731 10.836L500.519 590.36a5.73 5.73 0 11-3.731-10.835z"/><g transform="rotate(-19 1423.395 -695.829)"><use fill="#000" filter="url(#O)" xlink:href="#P"/><use fill="url(#Q)" xlink:href="#P"/></g><path fill="#1B283E" d="M513.286 618.221l202.353-69.676a5.73 5.73 0 013.731 10.836l-202.353 69.676a5.73 5.73 0 01-3.73-10.836zM520.118 638.06l202.352-69.676a5.73 5.73 0 113.731 10.835L523.85 648.895a5.73 5.73 0 01-3.731-10.836z"/><path fill="url(#R)" d="M118.053 76.435h246.794c20.83 0 37.716 16.886 37.716 37.716 0 3.862-.593 7.701-1.759 11.383l-3.658 11.555c-9.926 31.356-39.024 52.666-71.914 52.666H157.668c-32.89 0-61.988-21.31-71.914-52.666l-3.658-11.555c-6.287-19.858 4.715-41.053 24.574-47.34a37.704 37.704 0 0111.383-1.759z" transform="rotate(-19 1422.676 -701.174)"/><path fill="url(#S)" d="M58.428 76.449h364.417c20.83 0 37.716 16.886 37.716 37.716a37.7 37.7 0 01-3.116 15.01l-6.587 15.184c-11.96 27.57-39.147 45.41-69.2 45.41H99.615c-30.053 0-57.24-17.84-69.2-45.41l-6.587-15.183c-8.29-19.11.48-41.32 19.589-49.611a37.716 37.716 0 0115.01-3.116z" transform="rotate(-19 1422.634 -701.167)"/><path fill="url(#T)" d="M58.428 76.449h364.417c20.83 0 37.716 16.886 37.716 37.716a37.7 37.7 0 01-3.116 15.01l-6.587 15.184c-11.96 27.57-39.147 45.41-69.2 45.41H99.615c-30.053 0-57.24-17.84-69.2-45.41l-6.587-15.183c-8.29-19.11.48-41.32 19.589-49.611a37.716 37.716 0 0115.01-3.116z" transform="rotate(-19 1422.634 -701.167)"/><path fill="#1B283E" d="M777.294 383.354a37.7 37.7 0 011.94 15.207l-1.284 16.5c-2.334 29.962-22.23 55.681-50.646 65.465l-266.678 91.825c-28.417 9.785-59.93 1.768-80.214-20.406l-11.171-12.21a37.575 37.575 0 01-9.886-24.974 32.554 32.554 0 009.852 19.634l5.535 5.295a75.434 75.434 0 0076.694 16.806l273.347-94.12a75.433 75.433 0 0050.087-60.461l1.104-7.58a32.69 32.69 0 00-1.441-15.35 32.813 32.813 0 00-2.898-6.222 37.704 37.704 0 015.658 10.592z" opacity=".504"/><path fill="#1B283E" d="M516.724 449.036l96.881-33.36a37.714 37.714 0 0126.49.725l20.612 8.383c6.988 2.843 10.348 10.811 7.506 17.8a13.66 13.66 0 01-8.205 7.768l-158.502 54.577c-7.132 2.455-14.905-1.336-17.361-8.469a13.662 13.662 0 011.069-11.249l11.081-19.296a37.72 37.72 0 0120.428-16.88z"/><g transform="rotate(-19 1334.2 -1250.157)"><path fill="url(#U)" d="M29.335 0h63.66c16.202 0 29.335 13.134 29.335 29.335v71.553c0 9.258-7.505 16.763-16.762 16.763H16.763C7.505 117.65 0 110.146 0 100.888V29.335C0 13.134 13.134 0 29.335 0z"/><ellipse cx="58.887" cy="61.343" fill="#1B283E" rx="43.194" ry="43.191"/></g><g transform="rotate(-18 1433.553 -1381.391)"><ellipse cx="46.279" cy="46.276" fill="#328AF1" filter="url(#V)" opacity=".842" rx="46.279" ry="46.276"/><ellipse cx="47.266" cy="48.18" fill="url(#W)" rx="24.682" ry="24.681" transform="scale(1 -1) rotate(4 1426.97 0)"/><g style="mix-blend-mode:soft-light" fill="#FFF"><path d="M38.631 42.622l3.921 3.92a2.243 2.243 0 11-3.173 3.173l-3.92-3.92a2.244 2.244 0 113.172-3.173zM47.317 51.306l8.56 8.56a2.244 2.244 0 01-3.172 3.173l-8.56-8.56a2.243 2.243 0 113.172-3.173z"/><path d="M36.418 42.05l24.17-6.794a2.143 2.143 0 012.644 1.484l.013.05a2.25 2.25 0 01-1.572 2.723L37.5 46.306a2.142 2.142 0 01-2.644-1.483l-.013-.05a2.252 2.252 0 011.574-2.723z"/><path d="M52.204 61.01l6.794-24.172a2.252 2.252 0 012.723-1.572 2.143 2.143 0 011.548 2.606l-.014.05-6.792 24.173a2.252 2.252 0 01-2.723 1.573 2.144 2.144 0 01-1.548-2.607l.013-.051zM51.721 49.897l-8.987 8.987A2.18 2.18 0 1139.65 55.8l8.987-8.987a2.181 2.181 0 013.085 3.083zM38.557 63.062l-1.475 1.475a2.18 2.18 0 11-3.085-3.085l1.475-1.474a2.181 2.181 0 013.085 3.084z"/></g><path fill="#FFF" fill-opacity=".547" d="M28.084 50.255c.704 6.693 4.542 12.296 9.901 15.505a20.475 20.475 0 01-5.38-11.843c-1.187-11.298 7.009-21.418 18.304-22.605 4.605-.484 9.015.59 12.704 2.8-4.254-4.576-10.533-7.165-17.224-6.462-11.297 1.188-19.492 11.309-18.305 22.605z" style="mix-blend-mode:lighten" opacity=".58"/></g><g transform="rotate(-27 635.824 -505.528)"><path fill="url(#X)" d="M90.582 0H223.83c33.5 0 60.658 27.158 60.658 60.658v140.249c0 40.2-32.59 72.79-72.79 72.79H102.713c-40.2 0-72.79-32.59-72.79-72.79V60.658C29.924 27.158 57.082 0 90.583 0z"/><ellipse cx="82.913" cy="23.415" fill="url(#Y)" rx="8.017" ry="8.145"/><path fill="url(#Z)" d="M34.92 170.153c0 40.2 32.59 72.79 72.79 72.79h99.27c40.2 0 72.789-32.59 72.789-72.79v32.891c0 40.2-32.589 72.79-72.79 72.79H107.71c-40.2 0-72.79-32.59-72.79-72.79z" opacity=".405"/><g transform="translate(54.908 40.723)"><use fill="#1B283E" xlink:href="#aa"/><mask id="ad" fill="#fff"><use xlink:href="#ab"/></mask><use fill="url(#ac)" opacity=".705" xlink:href="#ab"/><g fill-rule="nonzero" mask="url(#ad)" transform="rotate(-16 141.223 159.782)"><use fill="#000" filter="url(#ae)" xlink:href="#af"/><use fill="url(#ag)" xlink:href="#af"/></g><mask id="ak" fill="#fff"><use xlink:href="#ah"/></mask><path stroke="url(#ai)" stroke-width="4.32" d="M178.156 2.16c7.22 0 13.757 2.927 18.488 7.658a26.067 26.067 0 017.659 18.49h0v120.169c0 5.388-1.653 10.5-4.56 14.754a26.127 26.127 0 01-12.092 9.608c-17.679 6.89-44.645 10.289-80.873 10.289-38.446 0-67.743-3.835-87.87-11.588a26.125 26.125 0 01-12.158-9.602 26.117 26.117 0 01-4.59-14.797h0V28.307A26.07 26.07 0 019.818 9.818a26.07 26.07 0 0118.49-7.658h0z"/><ellipse cx="58.123" cy="34.614" fill="url(#aj)" mask="url(#ak)" rx="114.242" ry="116.059"/></g><g fill-rule="nonzero"><use fill="#000" filter="url(#al)" xlink:href="#am"/><use fill="#FFF" xlink:href="#am"/></g><path d="M184.468 28.913h-6.44c-1.764 0-3.194-1.459-3.194-3.258 0-1.8 1.43-3.258 3.193-3.258h6.441c1.764 0 3.193 1.46 3.193 3.258s-1.43 3.258-3.193 3.258zm12.026-8.959h-6.441c-1.764 0-3.193-1.459-3.193-3.258 0-1.8 1.43-3.258 3.193-3.258h6.44c1.764 0 3.194 1.46 3.194 3.258s-1.43 3.258-3.193 3.258zm32.864 8.96h-35.275c-1.776 0-3.215-1.46-3.215-3.259 0-1.8 1.44-3.258 3.215-3.258h35.259c1.775 0 3.215 1.46 3.215 3.258s-1.44 3.258-3.215 3.258h.016zm11.883-8.96h-35.006c-1.846 0-3.341-1.459-3.341-3.258 0-1.8 1.495-3.258 3.34-3.258h35.007c1.845 0 3.341 1.46 3.341 3.258s-1.496 3.258-3.34 3.258z" fill="#243552"/><g transform="rotate(-1 3657.304 -1203.737)"><mask id="aq" fill="#fff"><use xlink:href="#an"/></mask><use fill="url(#ao)" opacity=".398" xlink:href="#an"/><path fill="url(#ap)" d="M56.318 6.313L11.485 91.732l35.553 22.479 45.314-95.909z" mask="url(#aq)" opacity=".309"/></g><g transform="rotate(-1 3580.633 -9989.357)"><mask id="as" fill="#fff"><use xlink:href="#ar"/></mask><use fill="url(#ao)" opacity=".398" xlink:href="#ar"/><path fill="url(#ap)" d="M56.008 6.313L11.175 91.732l35.553 22.479 45.313-95.909z" mask="url(#as)" opacity=".309"/></g><path fill="#1B283E" stroke="#1B283E" stroke-width="4.191" d="M234.788 174.58c-30.24.528-55.179-23.386-55.703-53.413-.524-30.026 23.565-54.795 53.805-55.323 30.24-.528 55.179 23.386 55.703 53.411.524 30.028-23.566 54.797-53.805 55.325zm-152.893 2.668c-30.24.528-55.177-23.385-55.701-53.413-.524-30.025 23.564-54.794 53.803-55.322 30.242-.528 55.179 23.386 55.703 53.411.524 30.027-23.563 54.797-53.805 55.324zm209.23-91.393c-4.665-5.16-13.469-11.797-18.736-15.587a63.587 63.587 0 00-4.185-2.953l-.091-.063.001.007c-10.184-6.511-22.351-10.206-35.373-9.978-17.542.306-33.294 7.66-44.57 19.294-5.467 5.253-10.156 10.98-15.013 16.595-6.149 7.118-9.92 3.744-16.193 3.853-6.272.11-9.925 3.614-16.32-3.286-5.047-5.442-9.937-11.002-15.582-16.06-11.676-11.232-27.866-18.03-45.408-17.724-13.021.227-25.828 4.357-35.198 11.21v-.007l.101.063c-1.409.976-2.67 2.012-3.99 3.095-5.132 3.971-13.923 10.916-18.406 16.236-6.658 7.903-21.5 8.681-21.5 8.681l.28 16.09s8.88-.674 11.813 2.65c1.733 1.96 3.732 11.514 6.896 21.493.975 3.558 2.333 6.98 3.888 10.254 1.457 3.255 3.147 6.266 5.06 8.728l.019-.018c11.636 16.853 31.302 27.768 53.419 27.382a63.413 63.413 0 0057.093-37.986l.05-.062.142-.245c4.416-7.747 8.631-28.825 10.642-32.2 2.03-3.412 7.254-3.763 7.254-3.763s5.232.169 7.382 3.507c2.128 3.303 7.073 24.222 11.757 31.81l.152.24.047.06a63.41 63.41 0 0058.381 35.971c22.117-.386 41.38-11.982 52.421-29.229l.005.016c1.826-2.526 3.376-5.593 4.717-8.898a62.04 62.04 0 003.464-10.384c2.812-10.082 4.325-19.698 5.986-21.717 2.817-3.424 11.429-3.054 11.429-3.054l-.281-16.09s-14.622-.266-21.554-7.931h0z"/></g></g><g transform="rotate(8 -2025.435 5427.436)"><ellipse cx="134.544" cy="309.945" fill="#000" filter="url(#at)" opacity=".457" rx="126.965" ry="23.007"/><g><ellipse cx="137.981" cy="321.931" fill="#000" filter="url(#au)" opacity=".759" rx="90.514" ry="11.664"/><path fill="url(#av)" fill-rule="nonzero" d="M57.515 160.782H218.73c15.562 0 28.177 12.615 28.177 28.177v72.63c0 38.48-31.193 69.673-69.673 69.673H98.888c-38.48 0-69.673-31.194-69.673-69.673v-72.507c0-15.63 12.67-28.3 28.3-28.3z"/><path fill="url(#aw)" d="M57.515 160.782H218.73c15.562 0 28.177 12.615 28.177 28.177v72.63c0 38.48-31.193 69.673-69.673 69.673H98.888c-38.48 0-69.673-31.194-69.673-69.673v-72.507c0-15.63 12.67-28.3 28.3-28.3z" opacity=".705"/><path fill="url(#ax)" fill-rule="nonzero" d="M138.06 214.62c60.114 0 108.846-.564 108.846-21.943s-48.732-38.71-108.845-38.71c-60.114 0-108.846 17.331-108.846 38.71 0 21.38 48.732 21.943 108.846 21.943z"/><path fill="url(#ay)" d="M138.06 214.62c60.114 0 108.846-.564 108.846-21.943s-48.732-38.71-108.845-38.71c-60.114 0-108.846 17.331-108.846 38.71 0 21.38 48.732 21.943 108.846 21.943z" opacity=".705"/><path fill="#16243A" fill-rule="nonzero" d="M138.06 200.623c31.007 0 56.142-.433 56.142-16.879 0-16.445-25.135-29.777-56.141-29.777-31.006 0-56.142 13.332-56.142 29.777 0 16.446 25.136 16.88 56.142 16.88z"/><g transform="scale(-1 1) rotate(-4 2911.673 825.814)"><ellipse cx="17.889" cy="18.11" fill="url(#az)" filter="url(#aA)" opacity=".899" rx="15.866" ry="15.598" transform="rotate(-81 17.89 18.11)"/><path stroke="url(#aB)" stroke-width="7.111" d="M13.766 9.041c-23.525 1.541-9.131 23.95-11.952 44.377-2.499 18.104 10.843 37.032 24.742 31.13" transform="scale(-1 1) rotate(-8 57.493 319.643)"/><g transform="scale(-1 1) rotate(82 -12.896 -6.274)"><rect width="11.137" height="11.904" x="4.176" y="3.968" fill="#1B283E" rx="5.568"/><rect width="19.489" height="7.936" fill="url(#aC)" rx="3.968"/></g></g><g transform="rotate(-4 3049.693 -3126.582)"><ellipse cx="17.889" cy="18.11" fill="url(#az)" filter="url(#aD)" opacity=".899" rx="15.866" ry="15.598" transform="rotate(-81 17.89 18.11)"/><path stroke="url(#aB)" stroke-width="7.111" d="M13.766 9.041c-23.525 1.541-9.131 23.95-11.952 44.377-2.499 18.104 10.843 37.032 24.742 31.13" transform="scale(-1 1) rotate(-8 57.493 319.643)"/><g transform="scale(-1 1) rotate(82 -12.896 -6.274)"><rect width="11.137" height="11.904" x="4.176" y="3.968" fill="#1B283E" rx="5.568"/><rect width="19.489" height="7.936" fill="url(#aC)" rx="3.968"/></g></g><path fill="url(#aE)" d="M119.027 116.642h39.722c10.37 0 18.776 8.406 18.776 18.776v46.159c0 5.925-4.803 10.729-10.729 10.729H110.98c-5.925 0-10.729-4.804-10.729-10.73v-46.158c0-10.37 8.406-18.776 18.776-18.776z"/><path fill="url(#aF)" d="M119.027 116.642h39.722c10.37 0 18.776 8.406 18.776 18.776v46.159c0 5.925-4.803 10.729-10.729 10.729H110.98c-5.925 0-10.729-4.804-10.729-10.73v-46.158c0-10.37 8.406-18.776 18.776-18.776z" opacity=".447"/><path fill="url(#aG)" fill-rule="nonzero" d="M134.052 167.964c74.035 0 134.052-1.562 134.052-60.766S208.087 0 134.052 0 0 47.994 0 107.198c0 59.204 60.017 60.766 134.052 60.766z" transform="translate(4.009)"/><path fill="url(#aH)" d="M134.052 167.964c74.035 0 134.052-1.562 134.052-60.766S208.087 0 134.052 0 0 47.994 0 107.198c0 59.204 60.017 60.766 134.052 60.766z" opacity=".705" transform="translate(4.009)"/><path fill="url(#aI)" d="M134.052 167.964c74.035 0 134.052-1.562 134.052-60.766S208.087 0 134.052 0 0 47.994 0 107.198c0 59.204 60.017 60.766 134.052 60.766z" opacity=".705" transform="translate(4.009)"/><g transform="translate(31.507 16.33)"><mask id="aK" fill="#fff"><use xlink:href="#aJ"/></mask><use fill="#192841" fill-rule="nonzero" opacity=".736" xlink:href="#aJ"/><g fill-rule="nonzero" mask="url(#aK)"><use fill="#000" filter="url(#aL)" xlink:href="#aM"/><use fill="url(#aN)" xlink:href="#aM"/></g><path fill="url(#aO)" fill-rule="nonzero" d="M106.554 0c41.095 0 76.756 18.853 94.533 46.47-15.865-7.6-34.372-11.96-54.135-11.96-58.848 0-106.554 38.662-106.554 86.354 0 3.778.3 7.265.88 10.483C16.163 126.142 0 114.114 0 86.354 0 38.662 47.706 0 106.554 0z" mask="url(#aK)" opacity=".195"/></g><g fill-rule="nonzero"><g transform="translate(65.879 249.613)"><use fill="#000" filter="url(#aP)" xlink:href="#aQ"/><use fill="url(#aR)" xlink:href="#aQ"/></g><g transform="translate(65.879 249.613)"><use fill="#000" filter="url(#aS)" xlink:href="#aT"/><use fill="url(#aU)" xlink:href="#aT"/></g><path fill="#16243A" d="M69.617 263.103h135.057a3.685 3.685 0 110 7.37H69.617a3.685 3.685 0 110-7.37zM69.564 276.628h135.058a3.685 3.685 0 010 7.37H69.564a3.685 3.685 0 010-7.37z"/><g transform="translate(65.879 249.613)"><use fill="#000" filter="url(#aV)" xlink:href="#aW"/><use fill="url(#aX)" xlink:href="#aW"/></g><path fill="#16243A" d="M69.564 290.354h135.058a3.685 3.685 0 010 7.37H69.564a3.685 3.685 0 010-7.37z"/></g></g></g></g></svg>