<svg id="Capa_1" enable-background="new 0 0 512 512" height="512" viewBox="0 0 512 512" width="512" xmlns="http://www.w3.org/2000/svg"><g><path d="m457 512h-402c-30.327 0-55-24.673-55-55v-402c0-30.327 24.673-55 55-55h402c30.327 0 55 24.673 55 55v402c0 30.327-24.673 55-55 55z" fill="#498cf0"/><path d="m457 0h-201v512h201c30.327 0 55-24.673 55-55v-402c0-30.327-24.673-55-55-55z" fill="#176ade"/><path d="m281 512h-90v-160h-55c-8.284 0-15-6.716-15-15v-60c0-8.284 6.716-15 15-15h55v-75c0-57.99 47.01-105 105-105h50c8.284 0 15 6.716 15 15v60c0 8.284-6.716 15-15 15h-50c-8.284 0-15 6.716-15 15v75h82.192c9.759 0 16.919 9.171 14.552 18.638l-15 60c-1.669 6.678-7.669 11.362-14.552 11.362h-67.192z" fill="#dcf5fa"/><path d="m348.192 352c6.883 0 12.883-4.684 14.552-11.362l15-60c2.367-9.467-4.794-18.638-14.552-18.638h-82.192v-75c0-8.284 6.716-15 15-15h50c8.284 0 15-6.716 15-15v-60c0-8.284-6.716-15-15-15h-50c-14.165 0-27.671 2.811-40 7.896v422.104h25v-160z" fill="#bedce6"/></g></svg>